<svg width="32" height="32" viewBox="0 0 32 32" fill="none" xmlns="http://www.w3.org/2000/svg">
<path d="M7.33268 4.33301C6.4122 4.33301 5.66602 5.07919 5.66602 5.99967V25.3876C5.66602 26.7351 7.18222 27.5256 8.287 26.754L15.9993 21.3676L23.7117 26.754C24.8165 27.5256 26.3327 26.7351 26.3327 25.3876V5.99967C26.3327 5.07919 25.5865 4.33301 24.666 4.33301H7.33268Z" stroke="#B5B5B5" stroke-width="2"/>
<path d="M7.33268 4.33301C6.4122 4.33301 5.66602 5.07919 5.66602 5.99967V25.3876C5.66602 26.7351 7.18222 27.5256 8.287 26.754L15.9993 21.3676L23.7117 26.754C24.8165 27.5256 26.3327 26.7351 26.3327 25.3876V5.99967C26.3327 5.07919 25.5865 4.33301 24.666 4.33301H7.33268Z" stroke="black" stroke-opacity="0.2" stroke-width="2"/>
<path d="M7.33268 4.33301C6.4122 4.33301 5.66602 5.07919 5.66602 5.99967V25.3876C5.66602 26.7351 7.18222 27.5256 8.287 26.754L15.9993 21.3676L23.7117 26.754C24.8165 27.5256 26.3327 26.7351 26.3327 25.3876V5.99967C26.3327 5.07919 25.5865 4.33301 24.666 4.33301H7.33268Z" stroke="black" stroke-opacity="0.2" stroke-width="2"/>
<path d="M7.33268 4.33301C6.4122 4.33301 5.66602 5.07919 5.66602 5.99967V25.3876C5.66602 26.7351 7.18222 27.5256 8.287 26.754L15.9993 21.3676L23.7117 26.754C24.8165 27.5256 26.3327 26.7351 26.3327 25.3876V5.99967C26.3327 5.07919 25.5865 4.33301 24.666 4.33301H7.33268Z" stroke="black" stroke-opacity="0.2" stroke-width="2"/>
</svg>
