<svg width="26" height="29" viewBox="0 0 26 29" fill="none" xmlns="http://www.w3.org/2000/svg">
<path d="M1 10.5C1 6.25736 1 4.13604 2.31802 2.81802C3.63604 1.5 5.75736 1.5 10 1.5H16C20.2426 1.5 22.364 1.5 23.682 2.81802C25 4.13604 25 6.25736 25 10.5V20.7414C25 24.7663 25 26.7788 23.7336 27.3943C22.4671 28.0099 20.8847 26.7665 17.7198 24.2798L16.7069 23.484C14.9274 22.0858 14.0376 21.3867 13 21.3867C11.9624 21.3867 11.0726 22.0858 9.29307 23.484L8.28019 24.2798C5.11532 26.7665 3.53288 28.0099 2.26644 27.3943C1 26.7788 1 24.7663 1 20.7414V10.5Z" fill="#F2D058" stroke="#F2D058" stroke-width="2"/>
</svg>
