<svg width="42" height="42" viewBox="0 0 42 42" fill="none" xmlns="http://www.w3.org/2000/svg">
<rect width="42" height="42" rx="21" fill="#F5EFE1"/>
<path d="M28.955 28.955C30.5284 27.3816 31.5997 25.3771 32.0339 23.1949C32.4679 21.0125 32.2451 18.7505 31.3936 16.6949C30.5421 14.6392 29.1002 12.8822 27.2501 11.6461C25.4001 10.4099 23.225 9.75012 21 9.75012C18.775 9.75012 16.5999 10.4099 14.7498 11.6461C12.8998 12.8822 11.4579 14.6392 10.6064 16.6949C9.75489 18.7505 9.53209 21.0125 9.96616 23.1949C10.4002 25.3771 11.4717 27.3816 13.045 28.955" stroke="#E2A882" stroke-width="1.5" stroke-linecap="round" stroke-linejoin="round"/>
<path d="M20.7076 33.5H21.2926C21.902 33.5001 22.4905 33.2776 22.9475 32.8744C23.4044 32.471 23.6983 31.9147 23.7739 31.31L24.3989 26.31C24.4428 25.9582 24.4114 25.6011 24.3069 25.2624C24.2023 24.9236 24.0268 24.611 23.7921 24.3453C23.5575 24.0795 23.269 23.8667 22.9458 23.721C22.6226 23.5752 22.2721 23.4999 21.9176 23.5H20.0826C19.728 23.4999 19.3776 23.5752 19.0544 23.721C18.7313 23.8667 18.4427 24.0795 18.2081 24.3453C17.9734 24.611 17.7979 24.9236 17.6933 25.2624C17.5887 25.6011 17.5574 25.9582 17.6013 26.31L18.2263 31.31C18.3019 31.9147 18.5958 32.471 19.0528 32.8744C19.5096 33.2776 20.0981 33.5001 20.7076 33.5Z" stroke="#E2A882" stroke-width="1.5" stroke-linecap="round" stroke-linejoin="round"/>
<path d="M21 19.75C22.3807 19.75 23.5 18.6307 23.5 17.25C23.5 15.8693 22.3807 14.75 21 14.75C19.6193 14.75 18.5 15.8693 18.5 17.25C18.5 18.6307 19.6193 19.75 21 19.75Z" stroke="#E2A882" stroke-width="1.5" stroke-linecap="round" stroke-linejoin="round"/>
</svg>
