<svg width="30" height="30" viewBox="0 0 30 30" fill="none" xmlns="http://www.w3.org/2000/svg">
<rect width="30" height="30" fill="#F5F5F5"/>
<g id="Profile 3">
<rect width="1920" height="1409" transform="translate(-1542 -99)" fill="white"/>
<g id="Navbar">
<rect width="1920" height="95" transform="translate(-1542 -99)" fill="white"/>
<g id="Profile Settings">
<g id="Frame 112">
<g id="Rectangle 17" filter="url(#filter0_d_1_3)">
<rect x="-24" y="-20" width="322" height="286" rx="10" fill="white"/>
</g>
<g id="Edit Profile">
<g id="Beautify-13">
<g id="Vector">
<path d="M22.1863 26.1879H7.81276C5.74802 26.1879 4.07422 24.5141 4.07422 22.4494C4.07422 19.4088 6.93169 17.1778 9.88152 17.9151L10.7111 18.1226C13.5268 18.8265 16.4723 18.8265 19.2879 18.1226L20.1175 17.9151C23.0674 17.1778 25.9248 19.4088 25.9248 22.4494C25.9248 24.5141 24.251 26.1879 22.1863 26.1879Z" stroke="black" stroke-width="2"/>
<path d="M22.1863 26.1879H7.81276C5.74802 26.1879 4.07422 24.5141 4.07422 22.4494C4.07422 19.4088 6.93169 17.1778 9.88152 17.9151L10.7111 18.1226C13.5268 18.8265 16.4723 18.8265 19.2879 18.1226L20.1175 17.9151C23.0674 17.1778 25.9248 19.4088 25.9248 22.4494C25.9248 24.5141 24.251 26.1879 22.1863 26.1879Z" stroke="black" stroke-opacity="0.2" stroke-width="2"/>
<path d="M22.1863 26.1879H7.81276C5.74802 26.1879 4.07422 24.5141 4.07422 22.4494C4.07422 19.4088 6.93169 17.1778 9.88152 17.9151L10.7111 18.1226C13.5268 18.8265 16.4723 18.8265 19.2879 18.1226L20.1175 17.9151C23.0674 17.1778 25.9248 19.4088 25.9248 22.4494C25.9248 24.5141 24.251 26.1879 22.1863 26.1879Z" stroke="black" stroke-opacity="0.2" stroke-width="2"/>
<path d="M22.1863 26.1879H7.81276C5.74802 26.1879 4.07422 24.5141 4.07422 22.4494C4.07422 19.4088 6.93169 17.1778 9.88152 17.9151L10.7111 18.1226C13.5268 18.8265 16.4723 18.8265 19.2879 18.1226L20.1175 17.9151C23.0674 17.1778 25.9248 19.4088 25.9248 22.4494C25.9248 24.5141 24.251 26.1879 22.1863 26.1879Z" stroke="black" stroke-opacity="0.2" stroke-width="2"/>
<path d="M22.1863 26.1879H7.81276C5.74802 26.1879 4.07422 24.5141 4.07422 22.4494C4.07422 19.4088 6.93169 17.1778 9.88152 17.9151L10.7111 18.1226C13.5268 18.8265 16.4723 18.8265 19.2879 18.1226L20.1175 17.9151C23.0674 17.1778 25.9248 19.4088 25.9248 22.4494C25.9248 24.5141 24.251 26.1879 22.1863 26.1879Z" stroke="black" stroke-opacity="0.2" stroke-width="2"/>
<path d="M22.1863 26.1879H7.81276C5.74802 26.1879 4.07422 24.5141 4.07422 22.4494C4.07422 19.4088 6.93169 17.1778 9.88152 17.9151L10.7111 18.1226C13.5268 18.8265 16.4723 18.8265 19.2879 18.1226L20.1175 17.9151C23.0674 17.1778 25.9248 19.4088 25.9248 22.4494C25.9248 24.5141 24.251 26.1879 22.1863 26.1879Z" stroke="black" stroke-opacity="0.2" stroke-width="2"/>
<path d="M22.1863 26.1879H7.81276C5.74802 26.1879 4.07422 24.5141 4.07422 22.4494C4.07422 19.4088 6.93169 17.1778 9.88152 17.9151L10.7111 18.1226C13.5268 18.8265 16.4723 18.8265 19.2879 18.1226L20.1175 17.9151C23.0674 17.1778 25.9248 19.4088 25.9248 22.4494C25.9248 24.5141 24.251 26.1879 22.1863 26.1879Z" stroke="black" stroke-opacity="0.2" stroke-width="2"/>
<path d="M22.1863 26.1879H7.81276C5.74802 26.1879 4.07422 24.5141 4.07422 22.4494C4.07422 19.4088 6.93169 17.1778 9.88152 17.9151L10.7111 18.1226C13.5268 18.8265 16.4723 18.8265 19.2879 18.1226L20.1175 17.9151C23.0674 17.1778 25.9248 19.4088 25.9248 22.4494C25.9248 24.5141 24.251 26.1879 22.1863 26.1879Z" stroke="black" stroke-opacity="0.2" stroke-width="2"/>
<path d="M22.1863 26.1879H7.81276C5.74802 26.1879 4.07422 24.5141 4.07422 22.4494C4.07422 19.4088 6.93169 17.1778 9.88152 17.9151L10.7111 18.1226C13.5268 18.8265 16.4723 18.8265 19.2879 18.1226L20.1175 17.9151C23.0674 17.1778 25.9248 19.4088 25.9248 22.4494C25.9248 24.5141 24.251 26.1879 22.1863 26.1879Z" stroke="black" stroke-opacity="0.2" stroke-width="2"/>
<path d="M22.1863 26.1879H7.81276C5.74802 26.1879 4.07422 24.5141 4.07422 22.4494C4.07422 19.4088 6.93169 17.1778 9.88152 17.9151L10.7111 18.1226C13.5268 18.8265 16.4723 18.8265 19.2879 18.1226L20.1175 17.9151C23.0674 17.1778 25.9248 19.4088 25.9248 22.4494C25.9248 24.5141 24.251 26.1879 22.1863 26.1879Z" stroke="black" stroke-opacity="0.2" stroke-width="2"/>
<path d="M22.1863 26.1879H7.81276C5.74802 26.1879 4.07422 24.5141 4.07422 22.4494C4.07422 19.4088 6.93169 17.1778 9.88152 17.9151L10.7111 18.1226C13.5268 18.8265 16.4723 18.8265 19.2879 18.1226L20.1175 17.9151C23.0674 17.1778 25.9248 19.4088 25.9248 22.4494C25.9248 24.5141 24.251 26.1879 22.1863 26.1879Z" stroke="black" stroke-opacity="0.2" stroke-width="2"/>
<path d="M22.1863 26.1879H7.81276C5.74802 26.1879 4.07422 24.5141 4.07422 22.4494C4.07422 19.4088 6.93169 17.1778 9.88152 17.9151L10.7111 18.1226C13.5268 18.8265 16.4723 18.8265 19.2879 18.1226L20.1175 17.9151C23.0674 17.1778 25.9248 19.4088 25.9248 22.4494C25.9248 24.5141 24.251 26.1879 22.1863 26.1879Z" stroke="black" stroke-opacity="0.2" stroke-width="2"/>
<path d="M22.1863 26.1879H7.81276C5.74802 26.1879 4.07422 24.5141 4.07422 22.4494C4.07422 19.4088 6.93169 17.1778 9.88152 17.9151L10.7111 18.1226C13.5268 18.8265 16.4723 18.8265 19.2879 18.1226L20.1175 17.9151C23.0674 17.1778 25.9248 19.4088 25.9248 22.4494C25.9248 24.5141 24.251 26.1879 22.1863 26.1879Z" stroke="black" stroke-opacity="0.2" stroke-width="2"/>
<path d="M22.1863 26.1879H7.81276C5.74802 26.1879 4.07422 24.5141 4.07422 22.4494C4.07422 19.4088 6.93169 17.1778 9.88152 17.9151L10.7111 18.1226C13.5268 18.8265 16.4723 18.8265 19.2879 18.1226L20.1175 17.9151C23.0674 17.1778 25.9248 19.4088 25.9248 22.4494C25.9248 24.5141 24.251 26.1879 22.1863 26.1879Z" stroke="black" stroke-opacity="0.2" stroke-width="2"/>
<path d="M22.1863 26.1879H7.81276C5.74802 26.1879 4.07422 24.5141 4.07422 22.4494C4.07422 19.4088 6.93169 17.1778 9.88152 17.9151L10.7111 18.1226C13.5268 18.8265 16.4723 18.8265 19.2879 18.1226L20.1175 17.9151C23.0674 17.1778 25.9248 19.4088 25.9248 22.4494C25.9248 24.5141 24.251 26.1879 22.1863 26.1879Z" stroke="black" stroke-opacity="0.2" stroke-width="2"/>
<path d="M22.1863 26.1879H7.81276C5.74802 26.1879 4.07422 24.5141 4.07422 22.4494C4.07422 19.4088 6.93169 17.1778 9.88152 17.9151L10.7111 18.1226C13.5268 18.8265 16.4723 18.8265 19.2879 18.1226L20.1175 17.9151C23.0674 17.1778 25.9248 19.4088 25.9248 22.4494C25.9248 24.5141 24.251 26.1879 22.1863 26.1879Z" stroke="black" stroke-opacity="0.2" stroke-width="2"/>
<path d="M22.1863 26.1879H7.81276C5.74802 26.1879 4.07422 24.5141 4.07422 22.4494C4.07422 19.4088 6.93169 17.1778 9.88152 17.9151L10.7111 18.1226C13.5268 18.8265 16.4723 18.8265 19.2879 18.1226L20.1175 17.9151C23.0674 17.1778 25.9248 19.4088 25.9248 22.4494C25.9248 24.5141 24.251 26.1879 22.1863 26.1879Z" stroke="black" stroke-opacity="0.2" stroke-width="2"/>
</g>
<g id="Vector_2">
<path d="M14.9998 13.9625C17.7578 13.9625 19.9937 11.7266 19.9937 8.96857C19.9937 6.21052 17.7578 3.97467 14.9998 3.97467C12.2417 3.97467 10.0059 6.21052 10.0059 8.96857C10.0059 11.7266 12.2417 13.9625 14.9998 13.9625Z" stroke="black" stroke-width="2"/>
<path d="M14.9998 13.9625C17.7578 13.9625 19.9937 11.7266 19.9937 8.96857C19.9937 6.21052 17.7578 3.97467 14.9998 3.97467C12.2417 3.97467 10.0059 6.21052 10.0059 8.96857C10.0059 11.7266 12.2417 13.9625 14.9998 13.9625Z" stroke="black" stroke-opacity="0.2" stroke-width="2"/>
<path d="M14.9998 13.9625C17.7578 13.9625 19.9937 11.7266 19.9937 8.96857C19.9937 6.21052 17.7578 3.97467 14.9998 3.97467C12.2417 3.97467 10.0059 6.21052 10.0059 8.96857C10.0059 11.7266 12.2417 13.9625 14.9998 13.9625Z" stroke="black" stroke-opacity="0.2" stroke-width="2"/>
<path d="M14.9998 13.9625C17.7578 13.9625 19.9937 11.7266 19.9937 8.96857C19.9937 6.21052 17.7578 3.97467 14.9998 3.97467C12.2417 3.97467 10.0059 6.21052 10.0059 8.96857C10.0059 11.7266 12.2417 13.9625 14.9998 13.9625Z" stroke="black" stroke-opacity="0.2" stroke-width="2"/>
<path d="M14.9998 13.9625C17.7578 13.9625 19.9937 11.7266 19.9937 8.96857C19.9937 6.21052 17.7578 3.97467 14.9998 3.97467C12.2417 3.97467 10.0059 6.21052 10.0059 8.96857C10.0059 11.7266 12.2417 13.9625 14.9998 13.9625Z" stroke="black" stroke-opacity="0.2" stroke-width="2"/>
<path d="M14.9998 13.9625C17.7578 13.9625 19.9937 11.7266 19.9937 8.96857C19.9937 6.21052 17.7578 3.97467 14.9998 3.97467C12.2417 3.97467 10.0059 6.21052 10.0059 8.96857C10.0059 11.7266 12.2417 13.9625 14.9998 13.9625Z" stroke="black" stroke-opacity="0.2" stroke-width="2"/>
<path d="M14.9998 13.9625C17.7578 13.9625 19.9937 11.7266 19.9937 8.96857C19.9937 6.21052 17.7578 3.97467 14.9998 3.97467C12.2417 3.97467 10.0059 6.21052 10.0059 8.96857C10.0059 11.7266 12.2417 13.9625 14.9998 13.9625Z" stroke="black" stroke-opacity="0.2" stroke-width="2"/>
<path d="M14.9998 13.9625C17.7578 13.9625 19.9937 11.7266 19.9937 8.96857C19.9937 6.21052 17.7578 3.97467 14.9998 3.97467C12.2417 3.97467 10.0059 6.21052 10.0059 8.96857C10.0059 11.7266 12.2417 13.9625 14.9998 13.9625Z" stroke="black" stroke-opacity="0.2" stroke-width="2"/>
<path d="M14.9998 13.9625C17.7578 13.9625 19.9937 11.7266 19.9937 8.96857C19.9937 6.21052 17.7578 3.97467 14.9998 3.97467C12.2417 3.97467 10.0059 6.21052 10.0059 8.96857C10.0059 11.7266 12.2417 13.9625 14.9998 13.9625Z" stroke="black" stroke-opacity="0.2" stroke-width="2"/>
<path d="M14.9998 13.9625C17.7578 13.9625 19.9937 11.7266 19.9937 8.96857C19.9937 6.21052 17.7578 3.97467 14.9998 3.97467C12.2417 3.97467 10.0059 6.21052 10.0059 8.96857C10.0059 11.7266 12.2417 13.9625 14.9998 13.9625Z" stroke="black" stroke-opacity="0.2" stroke-width="2"/>
<path d="M14.9998 13.9625C17.7578 13.9625 19.9937 11.7266 19.9937 8.96857C19.9937 6.21052 17.7578 3.97467 14.9998 3.97467C12.2417 3.97467 10.0059 6.21052 10.0059 8.96857C10.0059 11.7266 12.2417 13.9625 14.9998 13.9625Z" stroke="black" stroke-opacity="0.2" stroke-width="2"/>
<path d="M14.9998 13.9625C17.7578 13.9625 19.9937 11.7266 19.9937 8.96857C19.9937 6.21052 17.7578 3.97467 14.9998 3.97467C12.2417 3.97467 10.0059 6.21052 10.0059 8.96857C10.0059 11.7266 12.2417 13.9625 14.9998 13.9625Z" stroke="black" stroke-opacity="0.2" stroke-width="2"/>
<path d="M14.9998 13.9625C17.7578 13.9625 19.9937 11.7266 19.9937 8.96857C19.9937 6.21052 17.7578 3.97467 14.9998 3.97467C12.2417 3.97467 10.0059 6.21052 10.0059 8.96857C10.0059 11.7266 12.2417 13.9625 14.9998 13.9625Z" stroke="black" stroke-opacity="0.2" stroke-width="2"/>
<path d="M14.9998 13.9625C17.7578 13.9625 19.9937 11.7266 19.9937 8.96857C19.9937 6.21052 17.7578 3.97467 14.9998 3.97467C12.2417 3.97467 10.0059 6.21052 10.0059 8.96857C10.0059 11.7266 12.2417 13.9625 14.9998 13.9625Z" stroke="black" stroke-opacity="0.2" stroke-width="2"/>
<path d="M14.9998 13.9625C17.7578 13.9625 19.9937 11.7266 19.9937 8.96857C19.9937 6.21052 17.7578 3.97467 14.9998 3.97467C12.2417 3.97467 10.0059 6.21052 10.0059 8.96857C10.0059 11.7266 12.2417 13.9625 14.9998 13.9625Z" stroke="black" stroke-opacity="0.2" stroke-width="2"/>
<path d="M14.9998 13.9625C17.7578 13.9625 19.9937 11.7266 19.9937 8.96857C19.9937 6.21052 17.7578 3.97467 14.9998 3.97467C12.2417 3.97467 10.0059 6.21052 10.0059 8.96857C10.0059 11.7266 12.2417 13.9625 14.9998 13.9625Z" stroke="black" stroke-opacity="0.2" stroke-width="2"/>
<path d="M14.9998 13.9625C17.7578 13.9625 19.9937 11.7266 19.9937 8.96857C19.9937 6.21052 17.7578 3.97467 14.9998 3.97467C12.2417 3.97467 10.0059 6.21052 10.0059 8.96857C10.0059 11.7266 12.2417 13.9625 14.9998 13.9625Z" stroke="black" stroke-opacity="0.2" stroke-width="2"/>
</g>
</g>
</g>
</g>
</g>
</g>
</g>
<defs>
<filter id="filter0_d_1_3" x="-54" y="-50" width="382" height="346" filterUnits="userSpaceOnUse" color-interpolation-filters="sRGB">
<feFlood flood-opacity="0" result="BackgroundImageFix"/>
<feColorMatrix in="SourceAlpha" type="matrix" values="0 0 0 0 0 0 0 0 0 0 0 0 0 0 0 0 0 0 127 0" result="hardAlpha"/>
<feOffset/>
<feGaussianBlur stdDeviation="15"/>
<feComposite in2="hardAlpha" operator="out"/>
<feColorMatrix type="matrix" values="0 0 0 0 0 0 0 0 0 0 0 0 0 0 0 0 0 0 0.1 0"/>
<feBlend mode="normal" in2="BackgroundImageFix" result="effect1_dropShadow_1_3"/>
<feBlend mode="normal" in="SourceGraphic" in2="effect1_dropShadow_1_3" result="shape"/>
</filter>
</defs>
</svg>
