<svg width="27" height="27" viewBox="0 0 27 27" fill="none" xmlns="http://www.w3.org/2000/svg">
<rect width="27" height="27" fill="#F5F5F5"/>
<g id="Forgot password" clip-path="url(#clip0_1_3)">
<rect width="1920" height="1080" transform="translate(-1091 -557)" fill="white"/>
<g id="Background">
<rect id="Rectangle 33" x="-1091" y="-557" width="1920" height="1080" fill="#F5EFE1"/>
</g>
<g id="Log in">
<g id="Rectangle 34" filter="url(#filter0_d_1_3)">
<rect x="-826" y="-399" width="1390" height="764" rx="30" fill="#F5EFE1"/>
</g>
<g id="Log in_2" clip-path="url(#clip1_1_3)">
<rect id="Bacground for Log In" x="-76" y="-399" width="640" height="764" rx="30" fill="white"/>
<g id="Username">
<rect x="-15.5" y="-19.5" width="519" height="66" rx="11.5" stroke="#B5B5B5"/>
<g id="Frame">
<g id="Vector">
<path d="M3.375 3.375H23.625C24.2463 3.375 24.75 3.87868 24.75 4.5V22.5C24.75 23.1213 24.2463 23.625 23.625 23.625H3.375C2.75368 23.625 2.25 23.1213 2.25 22.5V4.5C2.25 3.87868 2.75368 3.375 3.375 3.375ZM22.5 8.14266L13.5808 16.1302L4.5 8.11793V21.375H22.5V8.14266ZM5.07539 5.625L13.5696 13.1198L21.9386 5.625H5.07539Z" fill="#B5B5B5"/>
<path d="M3.375 3.375H23.625C24.2463 3.375 24.75 3.87868 24.75 4.5V22.5C24.75 23.1213 24.2463 23.625 23.625 23.625H3.375C2.75368 23.625 2.25 23.1213 2.25 22.5V4.5C2.25 3.87868 2.75368 3.375 3.375 3.375ZM22.5 8.14266L13.5808 16.1302L4.5 8.11793V21.375H22.5V8.14266ZM5.07539 5.625L13.5696 13.1198L21.9386 5.625H5.07539Z" fill="black" fill-opacity="0.2"/>
<path d="M3.375 3.375H23.625C24.2463 3.375 24.75 3.87868 24.75 4.5V22.5C24.75 23.1213 24.2463 23.625 23.625 23.625H3.375C2.75368 23.625 2.25 23.1213 2.25 22.5V4.5C2.25 3.87868 2.75368 3.375 3.375 3.375ZM22.5 8.14266L13.5808 16.1302L4.5 8.11793V21.375H22.5V8.14266ZM5.07539 5.625L13.5696 13.1198L21.9386 5.625H5.07539Z" fill="black" fill-opacity="0.2"/>
<path d="M3.375 3.375H23.625C24.2463 3.375 24.75 3.87868 24.75 4.5V22.5C24.75 23.1213 24.2463 23.625 23.625 23.625H3.375C2.75368 23.625 2.25 23.1213 2.25 22.5V4.5C2.25 3.87868 2.75368 3.375 3.375 3.375ZM22.5 8.14266L13.5808 16.1302L4.5 8.11793V21.375H22.5V8.14266ZM5.07539 5.625L13.5696 13.1198L21.9386 5.625H5.07539Z" fill="black" fill-opacity="0.2"/>
</g>
</g>
</g>
</g>
</g>
</g>
<defs>
<filter id="filter0_d_1_3" x="-926" y="-499" width="1590" height="964" filterUnits="userSpaceOnUse" color-interpolation-filters="sRGB">
<feFlood flood-opacity="0" result="BackgroundImageFix"/>
<feColorMatrix in="SourceAlpha" type="matrix" values="0 0 0 0 0 0 0 0 0 0 0 0 0 0 0 0 0 0 127 0" result="hardAlpha"/>
<feOffset/>
<feGaussianBlur stdDeviation="50"/>
<feComposite in2="hardAlpha" operator="out"/>
<feColorMatrix type="matrix" values="0 0 0 0 0 0 0 0 0 0 0 0 0 0 0 0 0 0 0.1 0"/>
<feBlend mode="normal" in2="BackgroundImageFix" result="effect1_dropShadow_1_3"/>
<feBlend mode="normal" in="SourceGraphic" in2="effect1_dropShadow_1_3" result="shape"/>
</filter>
<clipPath id="clip0_1_3">
<rect width="1920" height="1080" fill="white" transform="translate(-1091 -557)"/>
</clipPath>
<clipPath id="clip1_1_3">
<rect width="640" height="764" fill="white" transform="translate(-76 -399)"/>
</clipPath>
</defs>
</svg>
