<svg width="24" height="25" viewBox="0 0 24 25" fill="none" xmlns="http://www.w3.org/2000/svg">
<path d="M10.9343 16.6859C14.0693 16.6859 16.6107 14.1445 16.6107 11.0095C16.6107 7.87447 14.0693 5.33304 10.9343 5.33304C7.79925 5.33304 5.25781 7.87447 5.25781 11.0095C5.25781 14.1445 7.79925 16.6859 10.9343 16.6859Z" stroke="#B5B5B5" stroke-width="1.5"/>
<path d="M10.9343 16.6859C14.0693 16.6859 16.6107 14.1445 16.6107 11.0095C16.6107 7.87447 14.0693 5.33304 10.9343 5.33304C7.79925 5.33304 5.25781 7.87447 5.25781 11.0095C5.25781 14.1445 7.79925 16.6859 10.9343 16.6859Z" stroke="black" stroke-opacity="0.2" stroke-width="1.5"/>
<path d="M10.9343 16.6859C14.0693 16.6859 16.6107 14.1445 16.6107 11.0095C16.6107 7.87447 14.0693 5.33304 10.9343 5.33304C7.79925 5.33304 5.25781 7.87447 5.25781 11.0095C5.25781 14.1445 7.79925 16.6859 10.9343 16.6859Z" stroke="black" stroke-opacity="0.2" stroke-width="1.5"/>
<path d="M10.9343 16.6859C14.0693 16.6859 16.6107 14.1445 16.6107 11.0095C16.6107 7.87447 14.0693 5.33304 10.9343 5.33304C7.79925 5.33304 5.25781 7.87447 5.25781 11.0095C5.25781 14.1445 7.79925 16.6859 10.9343 16.6859Z" stroke="black" stroke-opacity="0.2" stroke-width="1.5"/>
<path d="M15.2305 7.15012L19.4904 2.89014" stroke="#B5B5B5" stroke-width="1.5" stroke-linecap="round"/>
<path d="M15.2305 7.15012L19.4904 2.89014" stroke="black" stroke-opacity="0.2" stroke-width="1.5" stroke-linecap="round"/>
<path d="M15.2305 7.15012L19.4904 2.89014" stroke="black" stroke-opacity="0.2" stroke-width="1.5" stroke-linecap="round"/>
<path d="M15.2305 7.15012L19.4904 2.89014" stroke="black" stroke-opacity="0.2" stroke-width="1.5" stroke-linecap="round"/>
<path d="M11.1289 16.9004L11.1291 22.1098" stroke="#B5B5B5" stroke-width="1.5" stroke-linecap="round"/>
<path d="M11.1289 16.9004L11.1291 22.1098" stroke="black" stroke-opacity="0.2" stroke-width="1.5" stroke-linecap="round"/>
<path d="M11.1289 16.9004L11.1291 22.1098" stroke="black" stroke-opacity="0.2" stroke-width="1.5" stroke-linecap="round"/>
<path d="M11.1289 16.9004L11.1291 22.1098" stroke="black" stroke-opacity="0.2" stroke-width="1.5" stroke-linecap="round"/>
<path d="M15.7422 2.89014H19.4909" stroke="#B5B5B5" stroke-width="1.5" stroke-linecap="round"/>
<path d="M15.7422 2.89014H19.4909" stroke="black" stroke-opacity="0.2" stroke-width="1.5" stroke-linecap="round"/>
<path d="M15.7422 2.89014H19.4909" stroke="black" stroke-opacity="0.2" stroke-width="1.5" stroke-linecap="round"/>
<path d="M15.7422 2.89014H19.4909" stroke="black" stroke-opacity="0.2" stroke-width="1.5" stroke-linecap="round"/>
<path d="M19.4902 2.89014V6.6389" stroke="#B5B5B5" stroke-width="1.5" stroke-linecap="round"/>
<path d="M19.4902 2.89014V6.6389" stroke="black" stroke-opacity="0.2" stroke-width="1.5" stroke-linecap="round"/>
<path d="M19.4902 2.89014V6.6389" stroke="black" stroke-opacity="0.2" stroke-width="1.5" stroke-linecap="round"/>
<path d="M19.4902 2.89014V6.6389" stroke="black" stroke-opacity="0.2" stroke-width="1.5" stroke-linecap="round"/>
<path d="M13.0046 20.156H9.25586" stroke="#B5B5B5" stroke-width="1.5" stroke-linecap="round"/>
<path d="M13.0046 20.156H9.25586" stroke="black" stroke-opacity="0.2" stroke-width="1.5" stroke-linecap="round"/>
<path d="M13.0046 20.156H9.25586" stroke="black" stroke-opacity="0.2" stroke-width="1.5" stroke-linecap="round"/>
<path d="M13.0046 20.156H9.25586" stroke="black" stroke-opacity="0.2" stroke-width="1.5" stroke-linecap="round"/>
</svg>
