<svg width="126" height="126" viewBox="0 0 126 126" fill="none" xmlns="http://www.w3.org/2000/svg">
<circle cx="63" cy="63" r="62.5" fill="#F7F7F7" stroke="#B5B5B5"/>
<path d="M44.8636 74V71.375L56.7955 54.2614H44.7955V50.7273H62.0227V53.3523L50.1023 70.4659H62.0909V74H44.8636ZM66.1705 74V50.7273H81.0795V54.2614H70.3864V60.5795H80.0568V64.1136H70.3864V74H66.1705Z" fill="#B5B5B5"/>
<path d="M44.8636 74V71.375L56.7955 54.2614H44.7955V50.7273H62.0227V53.3523L50.1023 70.4659H62.0909V74H44.8636ZM66.1705 74V50.7273H81.0795V54.2614H70.3864V60.5795H80.0568V64.1136H70.3864V74H66.1705Z" fill="black" fill-opacity="0.2"/>
<path d="M44.8636 74V71.375L56.7955 54.2614H44.7955V50.7273H62.0227V53.3523L50.1023 70.4659H62.0909V74H44.8636ZM66.1705 74V50.7273H81.0795V54.2614H70.3864V60.5795H80.0568V64.1136H70.3864V74H66.1705Z" fill="black" fill-opacity="0.2"/>
<path d="M44.8636 74V71.375L56.7955 54.2614H44.7955V50.7273H62.0227V53.3523L50.1023 70.4659H62.0909V74H44.8636ZM66.1705 74V50.7273H81.0795V54.2614H70.3864V60.5795H80.0568V64.1136H70.3864V74H66.1705Z" fill="black" fill-opacity="0.2"/>
</svg>
