<svg width="32" height="32" viewBox="0 0 32 32" fill="none" xmlns="http://www.w3.org/2000/svg">
<rect width="32" height="32" fill="#F5F5F5"/>
<g id="Home after login" clip-path="url(#clip0_1_3)">
<rect width="1920" height="1080" transform="translate(-1669 -31)" fill="white"/>
<g id="Navbar">
<rect width="1920" height="95" transform="translate(-1669 -31)" fill="white"/>
<g id="Frame 111">
<g id="Beautify-7">
<g id="Vector">
<path d="M9.99935 5.33325C5.94927 5.33325 2.66602 8.61652 2.66602 12.6666C2.66602 19.9999 11.3327 26.6666 15.9993 28.2174C20.666 26.6666 29.3327 19.9999 29.3327 12.6666C29.3327 8.61652 26.0493 5.33325 21.9993 5.33325C19.5192 5.33325 17.3265 6.56452 15.9993 8.44912C14.6721 6.56452 12.4795 5.33325 9.99935 5.33325Z" stroke="#B5B5B5" stroke-width="2" stroke-linecap="round" stroke-linejoin="round"/>
<path d="M9.99935 5.33325C5.94927 5.33325 2.66602 8.61652 2.66602 12.6666C2.66602 19.9999 11.3327 26.6666 15.9993 28.2174C20.666 26.6666 29.3327 19.9999 29.3327 12.6666C29.3327 8.61652 26.0493 5.33325 21.9993 5.33325C19.5192 5.33325 17.3265 6.56452 15.9993 8.44912C14.6721 6.56452 12.4795 5.33325 9.99935 5.33325Z" stroke="black" stroke-opacity="0.2" stroke-width="2" stroke-linecap="round" stroke-linejoin="round"/>
<path d="M9.99935 5.33325C5.94927 5.33325 2.66602 8.61652 2.66602 12.6666C2.66602 19.9999 11.3327 26.6666 15.9993 28.2174C20.666 26.6666 29.3327 19.9999 29.3327 12.6666C29.3327 8.61652 26.0493 5.33325 21.9993 5.33325C19.5192 5.33325 17.3265 6.56452 15.9993 8.44912C14.6721 6.56452 12.4795 5.33325 9.99935 5.33325Z" stroke="black" stroke-opacity="0.2" stroke-width="2" stroke-linecap="round" stroke-linejoin="round"/>
<path d="M9.99935 5.33325C5.94927 5.33325 2.66602 8.61652 2.66602 12.6666C2.66602 19.9999 11.3327 26.6666 15.9993 28.2174C20.666 26.6666 29.3327 19.9999 29.3327 12.6666C29.3327 8.61652 26.0493 5.33325 21.9993 5.33325C19.5192 5.33325 17.3265 6.56452 15.9993 8.44912C14.6721 6.56452 12.4795 5.33325 9.99935 5.33325Z" stroke="black" stroke-opacity="0.2" stroke-width="2" stroke-linecap="round" stroke-linejoin="round"/>
</g>
</g>
</g>
</g>
</g>
<defs>
<clipPath id="clip0_1_3">
<rect width="1920" height="1080" fill="white" transform="translate(-1669 -31)"/>
</clipPath>
</defs>
</svg>
