<svg width="24" height="25" viewBox="0 0 24 25" fill="none" xmlns="http://www.w3.org/2000/svg">
<path d="M18.3132 11.202C18.3132 13.9142 15.136 17.5686 13.2892 19.4636C12.5738 20.1977 11.425 20.1977 10.7096 19.4636C8.86283 17.5686 5.68555 13.9142 5.68555 11.202C5.68555 7.37854 8.51236 4.27905 11.9994 4.27905C15.4864 4.27905 18.3132 7.37854 18.3132 11.202Z" stroke="#B5B5B5" stroke-width="1.5"/>
<path d="M18.3132 11.202C18.3132 13.9142 15.136 17.5686 13.2892 19.4636C12.5738 20.1977 11.425 20.1977 10.7096 19.4636C8.86283 17.5686 5.68555 13.9142 5.68555 11.202C5.68555 7.37854 8.51236 4.27905 11.9994 4.27905C15.4864 4.27905 18.3132 7.37854 18.3132 11.202Z" stroke="black" stroke-opacity="0.2" stroke-width="1.5"/>
<path d="M18.3132 11.202C18.3132 13.9142 15.136 17.5686 13.2892 19.4636C12.5738 20.1977 11.425 20.1977 10.7096 19.4636C8.86283 17.5686 5.68555 13.9142 5.68555 11.202C5.68555 7.37854 8.51236 4.27905 11.9994 4.27905C15.4864 4.27905 18.3132 7.37854 18.3132 11.202Z" stroke="black" stroke-opacity="0.2" stroke-width="1.5"/>
<path d="M18.3132 11.202C18.3132 13.9142 15.136 17.5686 13.2892 19.4636C12.5738 20.1977 11.425 20.1977 10.7096 19.4636C8.86283 17.5686 5.68555 13.9142 5.68555 11.202C5.68555 7.37854 8.51236 4.27905 11.9994 4.27905C15.4864 4.27905 18.3132 7.37854 18.3132 11.202Z" stroke="black" stroke-opacity="0.2" stroke-width="1.5"/>
<path d="M12.0002 12.7226C13.3163 12.7226 14.3832 11.6557 14.3832 10.3396C14.3832 9.02345 13.3163 7.95654 12.0002 7.95654C10.6841 7.95654 9.61719 9.02345 9.61719 10.3396C9.61719 11.6557 10.6841 12.7226 12.0002 12.7226Z" fill="#B5B5B5"/>
<path d="M12.0002 12.7226C13.3163 12.7226 14.3832 11.6557 14.3832 10.3396C14.3832 9.02345 13.3163 7.95654 12.0002 7.95654C10.6841 7.95654 9.61719 9.02345 9.61719 10.3396C9.61719 11.6557 10.6841 12.7226 12.0002 12.7226Z" fill="black" fill-opacity="0.2"/>
<path d="M12.0002 12.7226C13.3163 12.7226 14.3832 11.6557 14.3832 10.3396C14.3832 9.02345 13.3163 7.95654 12.0002 7.95654C10.6841 7.95654 9.61719 9.02345 9.61719 10.3396C9.61719 11.6557 10.6841 12.7226 12.0002 12.7226Z" fill="black" fill-opacity="0.2"/>
<path d="M12.0002 12.7226C13.3163 12.7226 14.3832 11.6557 14.3832 10.3396C14.3832 9.02345 13.3163 7.95654 12.0002 7.95654C10.6841 7.95654 9.61719 9.02345 9.61719 10.3396C9.61719 11.6557 10.6841 12.7226 12.0002 12.7226Z" fill="black" fill-opacity="0.2"/>
<path d="M12.0002 12.7226C13.3163 12.7226 14.3832 11.6557 14.3832 10.3396C14.3832 9.02345 13.3163 7.95654 12.0002 7.95654C10.6841 7.95654 9.61719 9.02345 9.61719 10.3396C9.61719 11.6557 10.6841 12.7226 12.0002 12.7226Z" stroke="#B5B5B5" stroke-width="1.5"/>
<path d="M12.0002 12.7226C13.3163 12.7226 14.3832 11.6557 14.3832 10.3396C14.3832 9.02345 13.3163 7.95654 12.0002 7.95654C10.6841 7.95654 9.61719 9.02345 9.61719 10.3396C9.61719 11.6557 10.6841 12.7226 12.0002 12.7226Z" stroke="black" stroke-opacity="0.2" stroke-width="1.5"/>
<path d="M12.0002 12.7226C13.3163 12.7226 14.3832 11.6557 14.3832 10.3396C14.3832 9.02345 13.3163 7.95654 12.0002 7.95654C10.6841 7.95654 9.61719 9.02345 9.61719 10.3396C9.61719 11.6557 10.6841 12.7226 12.0002 12.7226Z" stroke="black" stroke-opacity="0.2" stroke-width="1.5"/>
<path d="M12.0002 12.7226C13.3163 12.7226 14.3832 11.6557 14.3832 10.3396C14.3832 9.02345 13.3163 7.95654 12.0002 7.95654C10.6841 7.95654 9.61719 9.02345 9.61719 10.3396C9.61719 11.6557 10.6841 12.7226 12.0002 12.7226Z" stroke="black" stroke-opacity="0.2" stroke-width="1.5"/>
</svg>
