<svg width="178" height="43" viewBox="0 0 178 43" fill="none" xmlns="http://www.w3.org/2000/svg">
<path d="M0.78125 34V2H13.5937C15.9479 2 17.9115 2.34896 19.4844 3.04687C21.0573 3.74479 22.2396 4.71354 23.0313 5.95312C23.8229 7.18229 24.2188 8.59896 24.2188 10.2031C24.2188 11.4531 23.9688 12.5521 23.4688 13.5C22.9688 14.4375 22.2813 15.2083 21.4063 15.8125C20.5417 16.4062 19.5521 16.8281 18.4375 17.0781V17.3906C19.6563 17.4427 20.7969 17.7865 21.8594 18.4219C22.9323 19.0573 23.8021 19.9479 24.4688 21.0937C25.1354 22.2292 25.4688 23.5833 25.4688 25.1562C25.4688 26.8542 25.0469 28.3698 24.2031 29.7031C23.3698 31.026 22.1354 32.0729 20.5 32.8437C18.8646 33.6146 16.849 34 14.4531 34H0.78125ZM7.54688 28.4687H13.0625C14.9479 28.4687 16.3229 28.1094 17.1875 27.3906C18.0521 26.6615 18.4844 25.6927 18.4844 24.4844C18.4844 23.599 18.2708 22.8177 17.8438 22.1406C17.4167 21.4635 16.8073 20.9323 16.0156 20.5469C15.2344 20.1615 14.3021 19.9687 13.2188 19.9687H7.54688V28.4687ZM7.54688 15.3906H12.5625C13.4896 15.3906 14.3125 15.2292 15.0313 14.9062C15.7604 14.5729 16.3333 14.1042 16.75 13.5C17.1771 12.8958 17.3906 12.1719 17.3906 11.3281C17.3906 10.1719 16.9792 9.23958 16.1563 8.53125C15.3438 7.82292 14.1875 7.46875 12.6875 7.46875H7.54688V15.3906ZM40.6836 34.4688C38.2148 34.4688 36.0898 33.9688 34.3086 32.9688C32.5378 31.9583 31.1732 30.5312 30.2148 28.6875C29.2565 26.8333 28.7773 24.6406 28.7773 22.1094C28.7773 19.6406 29.2565 17.474 30.2148 15.6094C31.1732 13.7448 32.5221 12.2917 34.2617 11.25C36.0117 10.2083 38.0638 9.6875 40.418 9.6875C42.0013 9.6875 43.4753 9.94271 44.8398 10.4531C46.2148 10.9531 47.4128 11.7083 48.4336 12.7187C49.4648 13.7292 50.2669 15 50.8398 16.5312C51.4128 18.0521 51.6992 19.8333 51.6992 21.875V23.7031H31.4336V19.5781H45.4336C45.4336 18.6198 45.2253 17.7708 44.8086 17.0313C44.3919 16.2917 43.8138 15.7135 43.0742 15.2969C42.3451 14.8698 41.4961 14.6562 40.5273 14.6562C39.5169 14.6562 38.6211 14.8906 37.8398 15.3594C37.069 15.8177 36.4648 16.4375 36.0273 17.2187C35.5898 17.9896 35.3659 18.849 35.3555 19.7969V23.7187C35.3555 24.9062 35.5742 25.9323 36.0117 26.7969C36.4596 27.6615 37.0898 28.3281 37.9023 28.7969C38.7148 29.2656 39.6784 29.5 40.793 29.5C41.5326 29.5 42.2096 29.3958 42.8242 29.1875C43.4388 28.9792 43.9648 28.6667 44.4023 28.25C44.8398 27.8333 45.1732 27.3229 45.4023 26.7188L51.5586 27.125C51.2461 28.6042 50.6055 29.8958 49.6367 31C48.6784 32.0937 47.4388 32.9479 45.918 33.5625C44.4076 34.1667 42.6628 34.4688 40.6836 34.4688ZM62.8867 34.4531C61.3555 34.4531 59.9909 34.1875 58.793 33.6562C57.5951 33.1146 56.6471 32.3177 55.9492 31.2656C55.2617 30.2031 54.918 28.8802 54.918 27.2969C54.918 25.9635 55.1628 24.8437 55.6523 23.9375C56.1419 23.0313 56.8086 22.3021 57.6523 21.75C58.4961 21.1979 59.4544 20.7812 60.5273 20.5C61.6107 20.2187 62.7461 20.0208 63.9336 19.9062C65.3294 19.7604 66.4544 19.625 67.3086 19.5C68.1628 19.3646 68.7826 19.1667 69.168 18.9062C69.5534 18.6458 69.7461 18.2604 69.7461 17.75V17.6562C69.7461 16.6667 69.4336 15.901 68.8086 15.3594C68.194 14.8177 67.319 14.5469 66.1836 14.5469C64.9857 14.5469 64.0326 14.8125 63.3242 15.3437C62.6159 15.8646 62.1471 16.5208 61.918 17.3125L55.7617 16.8125C56.0742 15.3542 56.6888 14.0937 57.6055 13.0312C58.5221 11.9583 59.7044 11.1354 61.1523 10.5625C62.6107 9.97917 64.2982 9.6875 66.2148 9.6875C67.5482 9.6875 68.8242 9.84375 70.043 10.1562C71.2721 10.4687 72.3607 10.9531 73.3086 11.6094C74.2669 12.2656 75.0221 13.1094 75.5742 14.1406C76.1263 15.1615 76.4023 16.3854 76.4023 17.8125V34H70.0898V30.6719H69.9023C69.5169 31.4219 69.0013 32.0833 68.3555 32.6562C67.7096 33.2187 66.9336 33.6615 66.0273 33.9844C65.1211 34.2969 64.0742 34.4531 62.8867 34.4531ZM64.793 29.8594C65.7721 29.8594 66.6367 29.6667 67.3867 29.2812C68.1367 28.8854 68.7253 28.3542 69.1523 27.6875C69.5794 27.0208 69.793 26.2656 69.793 25.4219V22.875C69.5846 23.0104 69.2982 23.1354 68.9336 23.25C68.5794 23.3542 68.1784 23.4531 67.7305 23.5469C67.2826 23.6302 66.8346 23.7083 66.3867 23.7812C65.9388 23.8437 65.5326 23.901 65.168 23.9531C64.3867 24.0677 63.7044 24.25 63.1211 24.5C62.5378 24.75 62.0846 25.0885 61.7617 25.5156C61.4388 25.9323 61.2773 26.4531 61.2773 27.0781C61.2773 27.9844 61.6055 28.6771 62.2617 29.1562C62.9284 29.625 63.7721 29.8594 64.793 29.8594ZM96.957 23.7812V10H103.613V34H97.2227V29.6406H96.9727C96.431 31.0469 95.5299 32.1771 94.2695 33.0312C93.0195 33.8854 91.4935 34.3125 89.6914 34.3125C88.0872 34.3125 86.6758 33.9479 85.457 33.2188C84.2383 32.4896 83.2852 31.4531 82.5977 30.1094C81.9206 28.7656 81.5768 27.1562 81.5664 25.2812V10H88.2227V24.0937C88.2331 25.5104 88.6133 26.6302 89.3633 27.4531C90.1133 28.276 91.1185 28.6875 92.3789 28.6875C93.181 28.6875 93.931 28.5052 94.6289 28.1406C95.3268 27.7656 95.8893 27.2135 96.3164 26.4844C96.7539 25.7552 96.9674 24.8542 96.957 23.7812ZM121.703 10V15H107.25V10H121.703ZM110.531 4.25H117.188V26.625C117.188 27.2396 117.281 27.7187 117.469 28.0625C117.656 28.3958 117.917 28.6302 118.25 28.7656C118.594 28.901 118.99 28.9687 119.438 28.9687C119.75 28.9687 120.063 28.9427 120.375 28.8906C120.687 28.8281 120.927 28.7812 121.094 28.75L122.141 33.7031C121.807 33.8073 121.339 33.9271 120.734 34.0625C120.13 34.2083 119.396 34.2969 118.531 34.3281C116.927 34.3906 115.521 34.1771 114.313 33.6875C113.115 33.1979 112.182 32.4375 111.516 31.4062C110.849 30.375 110.521 29.0729 110.531 27.5V4.25ZM126.039 34V10H132.695V34H126.039ZM129.383 6.90625C128.393 6.90625 127.544 6.57812 126.836 5.92187C126.138 5.25521 125.789 4.45833 125.789 3.53125C125.789 2.61458 126.138 1.82812 126.836 1.17188C127.544 0.505207 128.393 0.171873 129.383 0.171873C130.372 0.171873 131.216 0.505207 131.914 1.17188C132.622 1.82812 132.977 2.61458 132.977 3.53125C132.977 4.45833 132.622 5.25521 131.914 5.92187C131.216 6.57812 130.372 6.90625 129.383 6.90625ZM150.934 10V15H136.121V10H150.934ZM139.512 34V8.26562C139.512 6.52604 139.85 5.08333 140.527 3.9375C141.215 2.79166 142.152 1.93229 143.34 1.35937C144.527 0.786456 145.876 0.499998 147.387 0.499998C148.408 0.499998 149.34 0.578123 150.184 0.734375C151.038 0.890624 151.673 1.03125 152.09 1.15625L150.902 6.15625C150.642 6.07292 150.319 5.99479 149.934 5.92187C149.559 5.84896 149.173 5.8125 148.777 5.8125C147.798 5.8125 147.116 6.04167 146.73 6.5C146.345 6.94792 146.152 7.57812 146.152 8.39062V34H139.512ZM159.109 43C158.266 43 157.474 42.9323 156.734 42.7969C156.005 42.6719 155.401 42.5104 154.922 42.3125L156.422 37.3438C157.203 37.5833 157.906 37.7135 158.531 37.7344C159.167 37.7552 159.714 37.6094 160.172 37.2969C160.641 36.9844 161.021 36.4531 161.313 35.7031L161.703 34.6875L153.094 10H160.094L165.062 27.625H165.312L170.328 10H177.375L168.047 36.5938C167.599 37.8854 166.99 39.0104 166.219 39.9687C165.458 40.9375 164.495 41.6823 163.328 42.2031C162.161 42.7344 160.755 43 159.109 43Z" fill="url(#paint0_linear_30_673)"/>
<defs>
<linearGradient id="paint0_linear_30_673" x1="179" y1="26.1635" x2="-1.98968" y2="9.2358" gradientUnits="userSpaceOnUse">
<stop stop-color="#DA5EAA"/>
<stop offset="1" stop-color="#A265C5"/>
</linearGradient>
</defs>
</svg>
