<svg width="27" height="27" viewBox="0 0 27 27" fill="none" xmlns="http://www.w3.org/2000/svg">
<rect width="27" height="27" fill="#F5F5F5"/>
<g id="Profile 2">
<rect width="1920" height="1409" transform="translate(-1130 -326)" fill="white"/>
<g id="Service Information">
<rect id="Rectangle 21" x="-151.5" y="-32.5" width="861" height="276" rx="17.5" stroke="#B5B5B5"/>
<g id="Frame 136">
<rect x="-131.5" y="-12.5" width="400" height="52" rx="11.5" stroke="#B5B5B5"/>
<g id="Beautify-9 1">
<g id="Vector">
<path d="M19.9688 23.6591H7.03265C5.17439 23.6591 3.66797 22.1527 3.66797 20.2944C3.66797 17.5579 6.2397 15.55 8.89454 16.2136L9.6412 16.4004C12.1753 17.0338 14.8262 17.0338 17.3603 16.4004L18.1069 16.2136C20.7618 15.55 23.3335 17.5579 23.3335 20.2944C23.3335 22.1527 21.8271 23.6591 19.9688 23.6591Z" stroke="black" stroke-width="1.5"/>
<path d="M19.9688 23.6591H7.03265C5.17439 23.6591 3.66797 22.1527 3.66797 20.2944C3.66797 17.5579 6.2397 15.55 8.89454 16.2136L9.6412 16.4004C12.1753 17.0338 14.8262 17.0338 17.3603 16.4004L18.1069 16.2136C20.7618 15.55 23.3335 17.5579 23.3335 20.2944C23.3335 22.1527 21.8271 23.6591 19.9688 23.6591Z" stroke="black" stroke-opacity="0.2" stroke-width="1.5"/>
<path d="M19.9688 23.6591H7.03265C5.17439 23.6591 3.66797 22.1527 3.66797 20.2944C3.66797 17.5579 6.2397 15.55 8.89454 16.2136L9.6412 16.4004C12.1753 17.0338 14.8262 17.0338 17.3603 16.4004L18.1069 16.2136C20.7618 15.55 23.3335 17.5579 23.3335 20.2944C23.3335 22.1527 21.8271 23.6591 19.9688 23.6591Z" stroke="black" stroke-opacity="0.2" stroke-width="1.5"/>
<path d="M19.9688 23.6591H7.03265C5.17439 23.6591 3.66797 22.1527 3.66797 20.2944C3.66797 17.5579 6.2397 15.55 8.89454 16.2136L9.6412 16.4004C12.1753 17.0338 14.8262 17.0338 17.3603 16.4004L18.1069 16.2136C20.7618 15.55 23.3335 17.5579 23.3335 20.2944C23.3335 22.1527 21.8271 23.6591 19.9688 23.6591Z" stroke="black" stroke-opacity="0.2" stroke-width="1.5"/>
<path d="M19.9688 23.6591H7.03265C5.17439 23.6591 3.66797 22.1527 3.66797 20.2944C3.66797 17.5579 6.2397 15.55 8.89454 16.2136L9.6412 16.4004C12.1753 17.0338 14.8262 17.0338 17.3603 16.4004L18.1069 16.2136C20.7618 15.55 23.3335 17.5579 23.3335 20.2944C23.3335 22.1527 21.8271 23.6591 19.9688 23.6591Z" stroke="black" stroke-opacity="0.2" stroke-width="1.5"/>
<path d="M19.9688 23.6591H7.03265C5.17439 23.6591 3.66797 22.1527 3.66797 20.2944C3.66797 17.5579 6.2397 15.55 8.89454 16.2136L9.6412 16.4004C12.1753 17.0338 14.8262 17.0338 17.3603 16.4004L18.1069 16.2136C20.7618 15.55 23.3335 17.5579 23.3335 20.2944C23.3335 22.1527 21.8271 23.6591 19.9688 23.6591Z" stroke="black" stroke-opacity="0.2" stroke-width="1.5"/>
<path d="M19.9688 23.6591H7.03265C5.17439 23.6591 3.66797 22.1527 3.66797 20.2944C3.66797 17.5579 6.2397 15.55 8.89454 16.2136L9.6412 16.4004C12.1753 17.0338 14.8262 17.0338 17.3603 16.4004L18.1069 16.2136C20.7618 15.55 23.3335 17.5579 23.3335 20.2944C23.3335 22.1527 21.8271 23.6591 19.9688 23.6591Z" stroke="black" stroke-opacity="0.2" stroke-width="1.5"/>
<path d="M19.9688 23.6591H7.03265C5.17439 23.6591 3.66797 22.1527 3.66797 20.2944C3.66797 17.5579 6.2397 15.55 8.89454 16.2136L9.6412 16.4004C12.1753 17.0338 14.8262 17.0338 17.3603 16.4004L18.1069 16.2136C20.7618 15.55 23.3335 17.5579 23.3335 20.2944C23.3335 22.1527 21.8271 23.6591 19.9688 23.6591Z" stroke="black" stroke-opacity="0.2" stroke-width="1.5"/>
<path d="M19.9688 23.6591H7.03265C5.17439 23.6591 3.66797 22.1527 3.66797 20.2944C3.66797 17.5579 6.2397 15.55 8.89454 16.2136L9.6412 16.4004C12.1753 17.0338 14.8262 17.0338 17.3603 16.4004L18.1069 16.2136C20.7618 15.55 23.3335 17.5579 23.3335 20.2944C23.3335 22.1527 21.8271 23.6591 19.9688 23.6591Z" stroke="black" stroke-opacity="0.2" stroke-width="1.5"/>
<path d="M19.9688 23.6591H7.03265C5.17439 23.6591 3.66797 22.1527 3.66797 20.2944C3.66797 17.5579 6.2397 15.55 8.89454 16.2136L9.6412 16.4004C12.1753 17.0338 14.8262 17.0338 17.3603 16.4004L18.1069 16.2136C20.7618 15.55 23.3335 17.5579 23.3335 20.2944C23.3335 22.1527 21.8271 23.6591 19.9688 23.6591Z" stroke="black" stroke-opacity="0.2" stroke-width="1.5"/>
<path d="M19.9688 23.6591H7.03265C5.17439 23.6591 3.66797 22.1527 3.66797 20.2944C3.66797 17.5579 6.2397 15.55 8.89454 16.2136L9.6412 16.4004C12.1753 17.0338 14.8262 17.0338 17.3603 16.4004L18.1069 16.2136C20.7618 15.55 23.3335 17.5579 23.3335 20.2944C23.3335 22.1527 21.8271 23.6591 19.9688 23.6591Z" stroke="black" stroke-opacity="0.2" stroke-width="1.5"/>
<path d="M19.9688 23.6591H7.03265C5.17439 23.6591 3.66797 22.1527 3.66797 20.2944C3.66797 17.5579 6.2397 15.55 8.89454 16.2136L9.6412 16.4004C12.1753 17.0338 14.8262 17.0338 17.3603 16.4004L18.1069 16.2136C20.7618 15.55 23.3335 17.5579 23.3335 20.2944C23.3335 22.1527 21.8271 23.6591 19.9688 23.6591Z" stroke="black" stroke-opacity="0.2" stroke-width="1.5"/>
<path d="M19.9688 23.6591H7.03265C5.17439 23.6591 3.66797 22.1527 3.66797 20.2944C3.66797 17.5579 6.2397 15.55 8.89454 16.2136L9.6412 16.4004C12.1753 17.0338 14.8262 17.0338 17.3603 16.4004L18.1069 16.2136C20.7618 15.55 23.3335 17.5579 23.3335 20.2944C23.3335 22.1527 21.8271 23.6591 19.9688 23.6591Z" stroke="black" stroke-opacity="0.2" stroke-width="1.5"/>
<path d="M19.9688 23.6591H7.03265C5.17439 23.6591 3.66797 22.1527 3.66797 20.2944C3.66797 17.5579 6.2397 15.55 8.89454 16.2136L9.6412 16.4004C12.1753 17.0338 14.8262 17.0338 17.3603 16.4004L18.1069 16.2136C20.7618 15.55 23.3335 17.5579 23.3335 20.2944C23.3335 22.1527 21.8271 23.6591 19.9688 23.6591Z" stroke="black" stroke-opacity="0.2" stroke-width="1.5"/>
<path d="M19.9688 23.6591H7.03265C5.17439 23.6591 3.66797 22.1527 3.66797 20.2944C3.66797 17.5579 6.2397 15.55 8.89454 16.2136L9.6412 16.4004C12.1753 17.0338 14.8262 17.0338 17.3603 16.4004L18.1069 16.2136C20.7618 15.55 23.3335 17.5579 23.3335 20.2944C23.3335 22.1527 21.8271 23.6591 19.9688 23.6591Z" stroke="black" stroke-opacity="0.2" stroke-width="1.5"/>
<path d="M19.9688 23.6591H7.03265C5.17439 23.6591 3.66797 22.1527 3.66797 20.2944C3.66797 17.5579 6.2397 15.55 8.89454 16.2136L9.6412 16.4004C12.1753 17.0338 14.8262 17.0338 17.3603 16.4004L18.1069 16.2136C20.7618 15.55 23.3335 17.5579 23.3335 20.2944C23.3335 22.1527 21.8271 23.6591 19.9688 23.6591Z" stroke="black" stroke-opacity="0.2" stroke-width="1.5"/>
<path d="M19.9688 23.6591H7.03265C5.17439 23.6591 3.66797 22.1527 3.66797 20.2944C3.66797 17.5579 6.2397 15.55 8.89454 16.2136L9.6412 16.4004C12.1753 17.0338 14.8262 17.0338 17.3603 16.4004L18.1069 16.2136C20.7618 15.55 23.3335 17.5579 23.3335 20.2944C23.3335 22.1527 21.8271 23.6591 19.9688 23.6591Z" stroke="black" stroke-opacity="0.2" stroke-width="1.5"/>
</g>
<g id="Vector_2">
<path d="M13.5004 12.6563C15.9826 12.6563 17.9949 10.644 17.9949 8.16175C17.9949 5.6795 15.9826 3.66724 13.5004 3.66724C11.0181 3.66724 9.00586 5.6795 9.00586 8.16175C9.00586 10.644 11.0181 12.6563 13.5004 12.6563Z" stroke="black" stroke-width="1.5"/>
<path d="M13.5004 12.6563C15.9826 12.6563 17.9949 10.644 17.9949 8.16175C17.9949 5.6795 15.9826 3.66724 13.5004 3.66724C11.0181 3.66724 9.00586 5.6795 9.00586 8.16175C9.00586 10.644 11.0181 12.6563 13.5004 12.6563Z" stroke="black" stroke-opacity="0.2" stroke-width="1.5"/>
<path d="M13.5004 12.6563C15.9826 12.6563 17.9949 10.644 17.9949 8.16175C17.9949 5.6795 15.9826 3.66724 13.5004 3.66724C11.0181 3.66724 9.00586 5.6795 9.00586 8.16175C9.00586 10.644 11.0181 12.6563 13.5004 12.6563Z" stroke="black" stroke-opacity="0.2" stroke-width="1.5"/>
<path d="M13.5004 12.6563C15.9826 12.6563 17.9949 10.644 17.9949 8.16175C17.9949 5.6795 15.9826 3.66724 13.5004 3.66724C11.0181 3.66724 9.00586 5.6795 9.00586 8.16175C9.00586 10.644 11.0181 12.6563 13.5004 12.6563Z" stroke="black" stroke-opacity="0.2" stroke-width="1.5"/>
<path d="M13.5004 12.6563C15.9826 12.6563 17.9949 10.644 17.9949 8.16175C17.9949 5.6795 15.9826 3.66724 13.5004 3.66724C11.0181 3.66724 9.00586 5.6795 9.00586 8.16175C9.00586 10.644 11.0181 12.6563 13.5004 12.6563Z" stroke="black" stroke-opacity="0.2" stroke-width="1.5"/>
<path d="M13.5004 12.6563C15.9826 12.6563 17.9949 10.644 17.9949 8.16175C17.9949 5.6795 15.9826 3.66724 13.5004 3.66724C11.0181 3.66724 9.00586 5.6795 9.00586 8.16175C9.00586 10.644 11.0181 12.6563 13.5004 12.6563Z" stroke="black" stroke-opacity="0.2" stroke-width="1.5"/>
<path d="M13.5004 12.6563C15.9826 12.6563 17.9949 10.644 17.9949 8.16175C17.9949 5.6795 15.9826 3.66724 13.5004 3.66724C11.0181 3.66724 9.00586 5.6795 9.00586 8.16175C9.00586 10.644 11.0181 12.6563 13.5004 12.6563Z" stroke="black" stroke-opacity="0.2" stroke-width="1.5"/>
<path d="M13.5004 12.6563C15.9826 12.6563 17.9949 10.644 17.9949 8.16175C17.9949 5.6795 15.9826 3.66724 13.5004 3.66724C11.0181 3.66724 9.00586 5.6795 9.00586 8.16175C9.00586 10.644 11.0181 12.6563 13.5004 12.6563Z" stroke="black" stroke-opacity="0.2" stroke-width="1.5"/>
<path d="M13.5004 12.6563C15.9826 12.6563 17.9949 10.644 17.9949 8.16175C17.9949 5.6795 15.9826 3.66724 13.5004 3.66724C11.0181 3.66724 9.00586 5.6795 9.00586 8.16175C9.00586 10.644 11.0181 12.6563 13.5004 12.6563Z" stroke="black" stroke-opacity="0.2" stroke-width="1.5"/>
<path d="M13.5004 12.6563C15.9826 12.6563 17.9949 10.644 17.9949 8.16175C17.9949 5.6795 15.9826 3.66724 13.5004 3.66724C11.0181 3.66724 9.00586 5.6795 9.00586 8.16175C9.00586 10.644 11.0181 12.6563 13.5004 12.6563Z" stroke="black" stroke-opacity="0.2" stroke-width="1.5"/>
<path d="M13.5004 12.6563C15.9826 12.6563 17.9949 10.644 17.9949 8.16175C17.9949 5.6795 15.9826 3.66724 13.5004 3.66724C11.0181 3.66724 9.00586 5.6795 9.00586 8.16175C9.00586 10.644 11.0181 12.6563 13.5004 12.6563Z" stroke="black" stroke-opacity="0.2" stroke-width="1.5"/>
<path d="M13.5004 12.6563C15.9826 12.6563 17.9949 10.644 17.9949 8.16175C17.9949 5.6795 15.9826 3.66724 13.5004 3.66724C11.0181 3.66724 9.00586 5.6795 9.00586 8.16175C9.00586 10.644 11.0181 12.6563 13.5004 12.6563Z" stroke="black" stroke-opacity="0.2" stroke-width="1.5"/>
<path d="M13.5004 12.6563C15.9826 12.6563 17.9949 10.644 17.9949 8.16175C17.9949 5.6795 15.9826 3.66724 13.5004 3.66724C11.0181 3.66724 9.00586 5.6795 9.00586 8.16175C9.00586 10.644 11.0181 12.6563 13.5004 12.6563Z" stroke="black" stroke-opacity="0.2" stroke-width="1.5"/>
<path d="M13.5004 12.6563C15.9826 12.6563 17.9949 10.644 17.9949 8.16175C17.9949 5.6795 15.9826 3.66724 13.5004 3.66724C11.0181 3.66724 9.00586 5.6795 9.00586 8.16175C9.00586 10.644 11.0181 12.6563 13.5004 12.6563Z" stroke="black" stroke-opacity="0.2" stroke-width="1.5"/>
<path d="M13.5004 12.6563C15.9826 12.6563 17.9949 10.644 17.9949 8.16175C17.9949 5.6795 15.9826 3.66724 13.5004 3.66724C11.0181 3.66724 9.00586 5.6795 9.00586 8.16175C9.00586 10.644 11.0181 12.6563 13.5004 12.6563Z" stroke="black" stroke-opacity="0.2" stroke-width="1.5"/>
<path d="M13.5004 12.6563C15.9826 12.6563 17.9949 10.644 17.9949 8.16175C17.9949 5.6795 15.9826 3.66724 13.5004 3.66724C11.0181 3.66724 9.00586 5.6795 9.00586 8.16175C9.00586 10.644 11.0181 12.6563 13.5004 12.6563Z" stroke="black" stroke-opacity="0.2" stroke-width="1.5"/>
<path d="M13.5004 12.6563C15.9826 12.6563 17.9949 10.644 17.9949 8.16175C17.9949 5.6795 15.9826 3.66724 13.5004 3.66724C11.0181 3.66724 9.00586 5.6795 9.00586 8.16175C9.00586 10.644 11.0181 12.6563 13.5004 12.6563Z" stroke="black" stroke-opacity="0.2" stroke-width="1.5"/>
</g>
</g>
</g>
</g>
</g>
</svg>
