<svg width="22" height="22" viewBox="0 0 22 22" fill="none" xmlns="http://www.w3.org/2000/svg">
<path d="M17.3008 20.9919H4.36468C2.50642 20.9919 1 19.4855 1 17.6272C1 14.8906 3.57173 12.8827 6.22657 13.5464L6.97323 13.7331C9.50728 14.3666 12.1582 14.3666 14.6923 13.7331L15.439 13.5464C18.0938 12.8827 20.6655 14.8906 20.6655 17.6272C20.6655 19.4855 19.1591 20.9919 17.3008 20.9919Z" fill="#030303" stroke="white" stroke-width="1.5"/>
<path d="M10.8328 9.98902C13.315 9.98902 15.3273 7.97676 15.3273 5.49451C15.3273 3.01226 13.315 1 10.8328 1C8.35052 1 6.33826 3.01226 6.33826 5.49451C6.33826 7.97676 8.35052 9.98902 10.8328 9.98902Z" fill="#030303" stroke="white" stroke-width="1.5"/>
</svg>
