<svg width="32" height="32" viewBox="0 0 32 32" fill="none" xmlns="http://www.w3.org/2000/svg">
<path d="M12.7053 5L2.5 16M2.5 16L12.7053 27M2.5 16H28.5" stroke="black" stroke-width="2" stroke-linecap="round" stroke-linejoin="round"/>
<path d="M12.7053 5L2.5 16M2.5 16L12.7053 27M2.5 16H28.5" stroke="black" stroke-opacity="0.2" stroke-width="2" stroke-linecap="round" stroke-linejoin="round"/>
<path d="M12.7053 5L2.5 16M2.5 16L12.7053 27M2.5 16H28.5" stroke="black" stroke-opacity="0.2" stroke-width="2" stroke-linecap="round" stroke-linejoin="round"/>
<path d="M12.7053 5L2.5 16M2.5 16L12.7053 27M2.5 16H28.5" stroke="black" stroke-opacity="0.2" stroke-width="2" stroke-linecap="round" stroke-linejoin="round"/>
<path d="M12.7053 5L2.5 16M2.5 16L12.7053 27M2.5 16H28.5" stroke="black" stroke-opacity="0.2" stroke-width="2" stroke-linecap="round" stroke-linejoin="round"/>
<path d="M12.7053 5L2.5 16M2.5 16L12.7053 27M2.5 16H28.5" stroke="black" stroke-opacity="0.2" stroke-width="2" stroke-linecap="round" stroke-linejoin="round"/>
<path d="M12.7053 5L2.5 16M2.5 16L12.7053 27M2.5 16H28.5" stroke="black" stroke-opacity="0.2" stroke-width="2" stroke-linecap="round" stroke-linejoin="round"/>
<path d="M12.7053 5L2.5 16M2.5 16L12.7053 27M2.5 16H28.5" stroke="black" stroke-opacity="0.2" stroke-width="2" stroke-linecap="round" stroke-linejoin="round"/>
<path d="M12.7053 5L2.5 16M2.5 16L12.7053 27M2.5 16H28.5" stroke="black" stroke-opacity="0.2" stroke-width="2" stroke-linecap="round" stroke-linejoin="round"/>
<path d="M12.7053 5L2.5 16M2.5 16L12.7053 27M2.5 16H28.5" stroke="black" stroke-opacity="0.2" stroke-width="2" stroke-linecap="round" stroke-linejoin="round"/>
<path d="M12.7053 5L2.5 16M2.5 16L12.7053 27M2.5 16H28.5" stroke="black" stroke-opacity="0.2" stroke-width="2" stroke-linecap="round" stroke-linejoin="round"/>
<path d="M12.7053 5L2.5 16M2.5 16L12.7053 27M2.5 16H28.5" stroke="black" stroke-opacity="0.2" stroke-width="2" stroke-linecap="round" stroke-linejoin="round"/>
<path d="M12.7053 5L2.5 16M2.5 16L12.7053 27M2.5 16H28.5" stroke="black" stroke-opacity="0.2" stroke-width="2" stroke-linecap="round" stroke-linejoin="round"/>
<path d="M12.7053 5L2.5 16M2.5 16L12.7053 27M2.5 16H28.5" stroke="black" stroke-opacity="0.2" stroke-width="2" stroke-linecap="round" stroke-linejoin="round"/>
<path d="M12.7053 5L2.5 16M2.5 16L12.7053 27M2.5 16H28.5" stroke="black" stroke-opacity="0.2" stroke-width="2" stroke-linecap="round" stroke-linejoin="round"/>
<path d="M12.7053 5L2.5 16M2.5 16L12.7053 27M2.5 16H28.5" stroke="black" stroke-opacity="0.2" stroke-width="2" stroke-linecap="round" stroke-linejoin="round"/>
<path d="M12.7053 5L2.5 16M2.5 16L12.7053 27M2.5 16H28.5" stroke="black" stroke-opacity="0.2" stroke-width="2" stroke-linecap="round" stroke-linejoin="round"/>
</svg>
