<svg width="24" height="25" viewBox="0 0 24 25" fill="none" xmlns="http://www.w3.org/2000/svg">
<path d="M8.99158 12.1949C9.69618 13.6499 10.8727 14.8235 12.3296 15.5244C12.4371 15.5752 12.5559 15.5973 12.6745 15.5883C12.793 15.5793 12.9072 15.5395 13.0058 15.473L15.1455 14.0436C15.2401 13.9795 15.3493 13.9404 15.4631 13.9299C15.5768 13.9194 15.6914 13.9379 15.796 13.9837L19.8017 15.7041C19.9386 15.7611 20.053 15.8615 20.1272 15.9898C20.2014 16.1182 20.2314 16.2674 20.2125 16.4145C20.0856 17.4054 19.6019 18.3161 18.852 18.9762C18.1021 19.6363 17.1374 20.0005 16.1384 20.0008C13.0512 20.0008 10.0904 18.7744 7.90744 16.5914C5.72445 14.4084 4.49805 11.4476 4.49805 8.3604C4.49828 7.36138 4.86251 6.39667 5.5226 5.64679C6.18268 4.8969 7.09339 4.41323 8.08431 4.28627C8.23139 4.26738 8.3806 4.29736 8.50897 4.3716C8.63733 4.44583 8.73774 4.56021 8.79472 4.69711L10.5151 8.71132C10.5598 8.81433 10.5785 8.92676 10.5696 9.0387C10.5606 9.15065 10.5243 9.25867 10.4637 9.35325L9.03437 11.5273C8.97073 11.6256 8.93339 11.7386 8.92589 11.8555C8.9184 11.9724 8.94101 12.0892 8.99158 12.1949Z" stroke="#B5B5B5" stroke-width="1.5"/>
<path d="M8.99158 12.1949C9.69618 13.6499 10.8727 14.8235 12.3296 15.5244C12.4371 15.5752 12.5559 15.5973 12.6745 15.5883C12.793 15.5793 12.9072 15.5395 13.0058 15.473L15.1455 14.0436C15.2401 13.9795 15.3493 13.9404 15.4631 13.9299C15.5768 13.9194 15.6914 13.9379 15.796 13.9837L19.8017 15.7041C19.9386 15.7611 20.053 15.8615 20.1272 15.9898C20.2014 16.1182 20.2314 16.2674 20.2125 16.4145C20.0856 17.4054 19.6019 18.3161 18.852 18.9762C18.1021 19.6363 17.1374 20.0005 16.1384 20.0008C13.0512 20.0008 10.0904 18.7744 7.90744 16.5914C5.72445 14.4084 4.49805 11.4476 4.49805 8.3604C4.49828 7.36138 4.86251 6.39667 5.5226 5.64679C6.18268 4.8969 7.09339 4.41323 8.08431 4.28627C8.23139 4.26738 8.3806 4.29736 8.50897 4.3716C8.63733 4.44583 8.73774 4.56021 8.79472 4.69711L10.5151 8.71132C10.5598 8.81433 10.5785 8.92676 10.5696 9.0387C10.5606 9.15065 10.5243 9.25867 10.4637 9.35325L9.03437 11.5273C8.97073 11.6256 8.93339 11.7386 8.92589 11.8555C8.9184 11.9724 8.94101 12.0892 8.99158 12.1949Z" stroke="black" stroke-opacity="0.2" stroke-width="1.5"/>
<path d="M8.99158 12.1949C9.69618 13.6499 10.8727 14.8235 12.3296 15.5244C12.4371 15.5752 12.5559 15.5973 12.6745 15.5883C12.793 15.5793 12.9072 15.5395 13.0058 15.473L15.1455 14.0436C15.2401 13.9795 15.3493 13.9404 15.4631 13.9299C15.5768 13.9194 15.6914 13.9379 15.796 13.9837L19.8017 15.7041C19.9386 15.7611 20.053 15.8615 20.1272 15.9898C20.2014 16.1182 20.2314 16.2674 20.2125 16.4145C20.0856 17.4054 19.6019 18.3161 18.852 18.9762C18.1021 19.6363 17.1374 20.0005 16.1384 20.0008C13.0512 20.0008 10.0904 18.7744 7.90744 16.5914C5.72445 14.4084 4.49805 11.4476 4.49805 8.3604C4.49828 7.36138 4.86251 6.39667 5.5226 5.64679C6.18268 4.8969 7.09339 4.41323 8.08431 4.28627C8.23139 4.26738 8.3806 4.29736 8.50897 4.3716C8.63733 4.44583 8.73774 4.56021 8.79472 4.69711L10.5151 8.71132C10.5598 8.81433 10.5785 8.92676 10.5696 9.0387C10.5606 9.15065 10.5243 9.25867 10.4637 9.35325L9.03437 11.5273C8.97073 11.6256 8.93339 11.7386 8.92589 11.8555C8.9184 11.9724 8.94101 12.0892 8.99158 12.1949Z" stroke="black" stroke-opacity="0.2" stroke-width="1.5"/>
<path d="M8.99158 12.1949C9.69618 13.6499 10.8727 14.8235 12.3296 15.5244C12.4371 15.5752 12.5559 15.5973 12.6745 15.5883C12.793 15.5793 12.9072 15.5395 13.0058 15.473L15.1455 14.0436C15.2401 13.9795 15.3493 13.9404 15.4631 13.9299C15.5768 13.9194 15.6914 13.9379 15.796 13.9837L19.8017 15.7041C19.9386 15.7611 20.053 15.8615 20.1272 15.9898C20.2014 16.1182 20.2314 16.2674 20.2125 16.4145C20.0856 17.4054 19.6019 18.3161 18.852 18.9762C18.1021 19.6363 17.1374 20.0005 16.1384 20.0008C13.0512 20.0008 10.0904 18.7744 7.90744 16.5914C5.72445 14.4084 4.49805 11.4476 4.49805 8.3604C4.49828 7.36138 4.86251 6.39667 5.5226 5.64679C6.18268 4.8969 7.09339 4.41323 8.08431 4.28627C8.23139 4.26738 8.3806 4.29736 8.50897 4.3716C8.63733 4.44583 8.73774 4.56021 8.79472 4.69711L10.5151 8.71132C10.5598 8.81433 10.5785 8.92676 10.5696 9.0387C10.5606 9.15065 10.5243 9.25867 10.4637 9.35325L9.03437 11.5273C8.97073 11.6256 8.93339 11.7386 8.92589 11.8555C8.9184 11.9724 8.94101 12.0892 8.99158 12.1949Z" stroke="black" stroke-opacity="0.2" stroke-width="1.5"/>
<path d="M14.5469 5.5957C15.5891 5.88045 16.5391 6.43204 17.3031 7.19603C18.0671 7.96003 18.6187 8.91002 18.9034 9.95228" stroke="#B5B5B5" stroke-width="1.5" stroke-linecap="round"/>
<path d="M14.5469 5.5957C15.5891 5.88045 16.5391 6.43204 17.3031 7.19603C18.0671 7.96003 18.6187 8.91002 18.9034 9.95228" stroke="black" stroke-opacity="0.2" stroke-width="1.5" stroke-linecap="round"/>
<path d="M14.5469 5.5957C15.5891 5.88045 16.5391 6.43204 17.3031 7.19603C18.0671 7.96003 18.6187 8.91002 18.9034 9.95228" stroke="black" stroke-opacity="0.2" stroke-width="1.5" stroke-linecap="round"/>
<path d="M14.5469 5.5957C15.5891 5.88045 16.5391 6.43204 17.3031 7.19603C18.0671 7.96003 18.6187 8.91002 18.9034 9.95228" stroke="black" stroke-opacity="0.2" stroke-width="1.5" stroke-linecap="round"/>
<path d="M13.8359 8.24048C14.4153 8.39907 14.9433 8.70584 15.368 9.13057C15.7928 9.5553 16.0995 10.0833 16.2581 10.6627" stroke="#B5B5B5" stroke-width="1.5" stroke-linecap="round"/>
<path d="M13.8359 8.24048C14.4153 8.39907 14.9433 8.70584 15.368 9.13057C15.7928 9.5553 16.0995 10.0833 16.2581 10.6627" stroke="black" stroke-opacity="0.2" stroke-width="1.5" stroke-linecap="round"/>
<path d="M13.8359 8.24048C14.4153 8.39907 14.9433 8.70584 15.368 9.13057C15.7928 9.5553 16.0995 10.0833 16.2581 10.6627" stroke="black" stroke-opacity="0.2" stroke-width="1.5" stroke-linecap="round"/>
<path d="M13.8359 8.24048C14.4153 8.39907 14.9433 8.70584 15.368 9.13057C15.7928 9.5553 16.0995 10.0833 16.2581 10.6627" stroke="black" stroke-opacity="0.2" stroke-width="1.5" stroke-linecap="round"/>
</svg>
