<svg width="25" height="24" viewBox="0 0 25 24" fill="none" xmlns="http://www.w3.org/2000/svg">
<path d="M21.125 3.75C21.5203 3.75 21.8438 4.0875 21.8438 4.5V19.4906L21.6191 19.1859L15.5098 10.9359C15.3076 10.6594 14.9887 10.5 14.6562 10.5C14.3238 10.5 14.0094 10.6594 13.8027 10.9359L10.0742 15.9703L8.7041 13.9688C8.50195 13.6734 8.17852 13.5 7.82812 13.5C7.47773 13.5 7.1543 13.6734 6.95215 13.9734L3.3584 19.2234L3.15625 19.5141V19.5V4.5C3.15625 4.0875 3.47969 3.75 3.875 3.75H21.125ZM3.875 1.5C2.28926 1.5 1 2.84531 1 4.5V19.5C1 21.1547 2.28926 22.5 3.875 22.5H21.125C22.7107 22.5 24 21.1547 24 19.5V4.5C24 2.84531 22.7107 1.5 21.125 1.5H3.875ZM7.46875 10.5C7.75191 10.5 8.0323 10.4418 8.29391 10.3287C8.55552 10.2157 8.79322 10.0499 8.99345 9.84099C9.19368 9.63206 9.3525 9.38402 9.46087 9.11104C9.56923 8.83806 9.625 8.54547 9.625 8.25C9.625 7.95453 9.56923 7.66194 9.46087 7.38896C9.3525 7.11598 9.19368 6.86794 8.99345 6.65901C8.79322 6.45008 8.55552 6.28434 8.29391 6.17127C8.0323 6.0582 7.75191 6 7.46875 6C7.18559 6 6.9052 6.0582 6.64359 6.17127C6.38198 6.28434 6.14428 6.45008 5.94405 6.65901C5.74382 6.86794 5.585 7.11598 5.47663 7.38896C5.36827 7.66194 5.3125 7.95453 5.3125 8.25C5.3125 8.54547 5.36827 8.83806 5.47663 9.11104C5.585 9.38402 5.74382 9.63206 5.94405 9.84099C6.14428 10.0499 6.38198 10.2157 6.64359 10.3287C6.9052 10.4418 7.18559 10.5 7.46875 10.5Z" fill="#F5EFE1"/>
</svg>
