<svg width="30" height="30" viewBox="0 0 30 30" fill="none" xmlns="http://www.w3.org/2000/svg">
<rect width="30" height="30" fill="#F5F5F5"/>
<g id="After adding service">
<rect width="1920" height="1080" transform="translate(-1610 -239)" fill="white"/>
<g id="Service">
<rect id="Rectangle 36" x="-1415.5" y="-42.5" width="1531" height="166" rx="11.5" fill="#F7F7F7" stroke="#B5B5B5"/>
<g id="Beautify-18">
<path id="Vector" d="M14.25 6H9.70001C7.87983 6 6.96975 6 6.27453 6.35422C5.66301 6.66582 5.16582 7.16301 4.85423 7.77453C4.5 8.46975 4.5 9.37983 4.5 11.2V20.3C4.5 22.1202 4.5 23.0303 4.85423 23.7255C5.16582 24.3371 5.66301 24.8341 6.27453 25.1457C6.96975 25.5 7.87983 25.5 9.70001 25.5H18.8C20.6202 25.5 21.5303 25.5 22.2255 25.1457C22.8371 24.8341 23.3341 24.3371 23.6457 23.7255C24 23.0303 24 22.1202 24 20.3V15.75" stroke="#B5B5B5" stroke-width="2" stroke-linecap="round" stroke-linejoin="round"/>
<path id="Vector_2" d="M10.5 19.5H12.2787C12.7984 19.5 13.0582 19.5 13.3027 19.4413C13.5194 19.3893 13.7267 19.3033 13.9167 19.1869C14.1311 19.0555 14.3148 18.8718 14.6823 18.5044L24.84 8.34666C25.72 7.46668 25.72 6.03996 24.84 5.15998C23.9601 4.28001 22.5333 4.28001 21.6534 5.15998L11.4956 15.3177C11.1282 15.6852 10.9444 15.8689 10.8131 16.0833C10.6966 16.2733 10.6107 16.4806 10.5587 16.6974C10.5 16.9419 10.5 17.2017 10.5 17.7213V19.5Z" stroke="#B5B5B5" stroke-width="2" stroke-linecap="round" stroke-linejoin="round"/>
</g>
</g>
</g>
</svg>
