<svg width="30" height="30" viewBox="0 0 30 30" fill="none" xmlns="http://www.w3.org/2000/svg">
<path d="M3.75 6.87497H6.25H26.25" stroke="#B5B5B5" stroke-width="1.5" stroke-linecap="round" stroke-linejoin="round"/>
<path d="M23.75 6.87497L22.5 24.375C22.5 25.038 22.2366 25.6739 21.7677 26.1428C21.299 26.6117 20.663 26.8749 20 26.8749H10C9.33695 26.8749 8.70107 26.6117 8.23223 26.1428C7.76339 25.6739 7.5 25.038 7.5 24.375L6.25 6.87497H23.75Z" stroke="#B5B5B5" stroke-width="2" stroke-linecap="round" stroke-linejoin="round"/>
<path d="M12.5 13.1249V20.6248" stroke="#B5B5B5" stroke-width="1.5" stroke-linecap="round" stroke-linejoin="round"/>
<path d="M17.5 13.1249V20.6248" stroke="#B5B5B5" stroke-width="1.5" stroke-linecap="round" stroke-linejoin="round"/>
<path d="M10 6.87497L10.5662 5.17629C10.9746 3.95126 12.121 3.12497 13.4123 3.12497H16.5878C17.879 3.12497 19.0254 3.95126 19.4337 5.17629L20 6.87497" stroke="#B5B5B5" stroke-width="2"/>
</svg>
