<svg width="27" height="27" viewBox="0 0 27 27" fill="none" xmlns="http://www.w3.org/2000/svg">
<path d="M20.1011 3.61011H6.89844C5.50047 3.61011 4.36719 4.74339 4.36719 6.14136V20.8586C4.36719 22.2566 5.50047 23.3899 6.89844 23.3899H20.1011C21.4991 23.3899 22.6324 22.2566 22.6324 20.8586V6.14136C22.6324 4.74339 21.4991 3.61011 20.1011 3.61011Z" stroke="black" stroke-width="1.5"/>
<path d="M20.1011 3.61011H6.89844C5.50047 3.61011 4.36719 4.74339 4.36719 6.14136V20.8586C4.36719 22.2566 5.50047 23.3899 6.89844 23.3899H20.1011C21.4991 23.3899 22.6324 22.2566 22.6324 20.8586V6.14136C22.6324 4.74339 21.4991 3.61011 20.1011 3.61011Z" stroke="black" stroke-opacity="0.2" stroke-width="1.5"/>
<path d="M20.1011 3.61011H6.89844C5.50047 3.61011 4.36719 4.74339 4.36719 6.14136V20.8586C4.36719 22.2566 5.50047 23.3899 6.89844 23.3899H20.1011C21.4991 23.3899 22.6324 22.2566 22.6324 20.8586V6.14136C22.6324 4.74339 21.4991 3.61011 20.1011 3.61011Z" stroke="black" stroke-opacity="0.2" stroke-width="1.5"/>
<path d="M20.1011 3.61011H6.89844C5.50047 3.61011 4.36719 4.74339 4.36719 6.14136V20.8586C4.36719 22.2566 5.50047 23.3899 6.89844 23.3899H20.1011C21.4991 23.3899 22.6324 22.2566 22.6324 20.8586V6.14136C22.6324 4.74339 21.4991 3.61011 20.1011 3.61011Z" stroke="black" stroke-opacity="0.2" stroke-width="1.5"/>
<path d="M20.1011 3.61011H6.89844C5.50047 3.61011 4.36719 4.74339 4.36719 6.14136V20.8586C4.36719 22.2566 5.50047 23.3899 6.89844 23.3899H20.1011C21.4991 23.3899 22.6324 22.2566 22.6324 20.8586V6.14136C22.6324 4.74339 21.4991 3.61011 20.1011 3.61011Z" stroke="black" stroke-opacity="0.2" stroke-width="1.5"/>
<path d="M20.1011 3.61011H6.89844C5.50047 3.61011 4.36719 4.74339 4.36719 6.14136V20.8586C4.36719 22.2566 5.50047 23.3899 6.89844 23.3899H20.1011C21.4991 23.3899 22.6324 22.2566 22.6324 20.8586V6.14136C22.6324 4.74339 21.4991 3.61011 20.1011 3.61011Z" stroke="black" stroke-opacity="0.2" stroke-width="1.5"/>
<path d="M20.1011 3.61011H6.89844C5.50047 3.61011 4.36719 4.74339 4.36719 6.14136V20.8586C4.36719 22.2566 5.50047 23.3899 6.89844 23.3899H20.1011C21.4991 23.3899 22.6324 22.2566 22.6324 20.8586V6.14136C22.6324 4.74339 21.4991 3.61011 20.1011 3.61011Z" stroke="black" stroke-opacity="0.2" stroke-width="1.5"/>
<path d="M20.1011 3.61011H6.89844C5.50047 3.61011 4.36719 4.74339 4.36719 6.14136V20.8586C4.36719 22.2566 5.50047 23.3899 6.89844 23.3899H20.1011C21.4991 23.3899 22.6324 22.2566 22.6324 20.8586V6.14136C22.6324 4.74339 21.4991 3.61011 20.1011 3.61011Z" stroke="black" stroke-opacity="0.2" stroke-width="1.5"/>
<path d="M20.1011 3.61011H6.89844C5.50047 3.61011 4.36719 4.74339 4.36719 6.14136V20.8586C4.36719 22.2566 5.50047 23.3899 6.89844 23.3899H20.1011C21.4991 23.3899 22.6324 22.2566 22.6324 20.8586V6.14136C22.6324 4.74339 21.4991 3.61011 20.1011 3.61011Z" stroke="black" stroke-opacity="0.2" stroke-width="1.5"/>
<path d="M20.1011 3.61011H6.89844C5.50047 3.61011 4.36719 4.74339 4.36719 6.14136V20.8586C4.36719 22.2566 5.50047 23.3899 6.89844 23.3899H20.1011C21.4991 23.3899 22.6324 22.2566 22.6324 20.8586V6.14136C22.6324 4.74339 21.4991 3.61011 20.1011 3.61011Z" stroke="black" stroke-opacity="0.2" stroke-width="1.5"/>
<path d="M20.1011 3.61011H6.89844C5.50047 3.61011 4.36719 4.74339 4.36719 6.14136V20.8586C4.36719 22.2566 5.50047 23.3899 6.89844 23.3899H20.1011C21.4991 23.3899 22.6324 22.2566 22.6324 20.8586V6.14136C22.6324 4.74339 21.4991 3.61011 20.1011 3.61011Z" stroke="black" stroke-opacity="0.2" stroke-width="1.5"/>
<path d="M20.1011 3.61011H6.89844C5.50047 3.61011 4.36719 4.74339 4.36719 6.14136V20.8586C4.36719 22.2566 5.50047 23.3899 6.89844 23.3899H20.1011C21.4991 23.3899 22.6324 22.2566 22.6324 20.8586V6.14136C22.6324 4.74339 21.4991 3.61011 20.1011 3.61011Z" stroke="black" stroke-opacity="0.2" stroke-width="1.5"/>
<path d="M20.1011 3.61011H6.89844C5.50047 3.61011 4.36719 4.74339 4.36719 6.14136V20.8586C4.36719 22.2566 5.50047 23.3899 6.89844 23.3899H20.1011C21.4991 23.3899 22.6324 22.2566 22.6324 20.8586V6.14136C22.6324 4.74339 21.4991 3.61011 20.1011 3.61011Z" stroke="black" stroke-opacity="0.2" stroke-width="1.5"/>
<path d="M20.1011 3.61011H6.89844C5.50047 3.61011 4.36719 4.74339 4.36719 6.14136V20.8586C4.36719 22.2566 5.50047 23.3899 6.89844 23.3899H20.1011C21.4991 23.3899 22.6324 22.2566 22.6324 20.8586V6.14136C22.6324 4.74339 21.4991 3.61011 20.1011 3.61011Z" stroke="black" stroke-opacity="0.2" stroke-width="1.5"/>
<path d="M20.1011 3.61011H6.89844C5.50047 3.61011 4.36719 4.74339 4.36719 6.14136V20.8586C4.36719 22.2566 5.50047 23.3899 6.89844 23.3899H20.1011C21.4991 23.3899 22.6324 22.2566 22.6324 20.8586V6.14136C22.6324 4.74339 21.4991 3.61011 20.1011 3.61011Z" stroke="black" stroke-opacity="0.2" stroke-width="1.5"/>
<path d="M20.1011 3.61011H6.89844C5.50047 3.61011 4.36719 4.74339 4.36719 6.14136V20.8586C4.36719 22.2566 5.50047 23.3899 6.89844 23.3899H20.1011C21.4991 23.3899 22.6324 22.2566 22.6324 20.8586V6.14136C22.6324 4.74339 21.4991 3.61011 20.1011 3.61011Z" stroke="black" stroke-opacity="0.2" stroke-width="1.5"/>
<path d="M20.1011 3.61011H6.89844C5.50047 3.61011 4.36719 4.74339 4.36719 6.14136V20.8586C4.36719 22.2566 5.50047 23.3899 6.89844 23.3899H20.1011C21.4991 23.3899 22.6324 22.2566 22.6324 20.8586V6.14136C22.6324 4.74339 21.4991 3.61011 20.1011 3.61011Z" stroke="black" stroke-opacity="0.2" stroke-width="1.5"/>
<path d="M8.93164 15.257H9.94803" stroke="black" stroke-width="1.5" stroke-linecap="round"/>
<path d="M8.93164 15.257H9.94803" stroke="black" stroke-opacity="0.2" stroke-width="1.5" stroke-linecap="round"/>
<path d="M8.93164 15.257H9.94803" stroke="black" stroke-opacity="0.2" stroke-width="1.5" stroke-linecap="round"/>
<path d="M8.93164 15.257H9.94803" stroke="black" stroke-opacity="0.2" stroke-width="1.5" stroke-linecap="round"/>
<path d="M8.93164 15.257H9.94803" stroke="black" stroke-opacity="0.2" stroke-width="1.5" stroke-linecap="round"/>
<path d="M8.93164 15.257H9.94803" stroke="black" stroke-opacity="0.2" stroke-width="1.5" stroke-linecap="round"/>
<path d="M8.93164 15.257H9.94803" stroke="black" stroke-opacity="0.2" stroke-width="1.5" stroke-linecap="round"/>
<path d="M8.93164 15.257H9.94803" stroke="black" stroke-opacity="0.2" stroke-width="1.5" stroke-linecap="round"/>
<path d="M8.93164 15.257H9.94803" stroke="black" stroke-opacity="0.2" stroke-width="1.5" stroke-linecap="round"/>
<path d="M8.93164 15.257H9.94803" stroke="black" stroke-opacity="0.2" stroke-width="1.5" stroke-linecap="round"/>
<path d="M8.93164 15.257H9.94803" stroke="black" stroke-opacity="0.2" stroke-width="1.5" stroke-linecap="round"/>
<path d="M8.93164 15.257H9.94803" stroke="black" stroke-opacity="0.2" stroke-width="1.5" stroke-linecap="round"/>
<path d="M8.93164 15.257H9.94803" stroke="black" stroke-opacity="0.2" stroke-width="1.5" stroke-linecap="round"/>
<path d="M8.93164 15.257H9.94803" stroke="black" stroke-opacity="0.2" stroke-width="1.5" stroke-linecap="round"/>
<path d="M8.93164 15.257H9.94803" stroke="black" stroke-opacity="0.2" stroke-width="1.5" stroke-linecap="round"/>
<path d="M8.93164 15.257H9.94803" stroke="black" stroke-opacity="0.2" stroke-width="1.5" stroke-linecap="round"/>
<path d="M8.93164 15.257H9.94803" stroke="black" stroke-opacity="0.2" stroke-width="1.5" stroke-linecap="round"/>
<path d="M8.93164 19.1031H16.4011" stroke="black" stroke-width="1.5" stroke-linecap="round"/>
<path d="M8.93164 19.1031H16.4011" stroke="black" stroke-opacity="0.2" stroke-width="1.5" stroke-linecap="round"/>
<path d="M8.93164 19.1031H16.4011" stroke="black" stroke-opacity="0.2" stroke-width="1.5" stroke-linecap="round"/>
<path d="M8.93164 19.1031H16.4011" stroke="black" stroke-opacity="0.2" stroke-width="1.5" stroke-linecap="round"/>
<path d="M8.93164 19.1031H16.4011" stroke="black" stroke-opacity="0.2" stroke-width="1.5" stroke-linecap="round"/>
<path d="M8.93164 19.1031H16.4011" stroke="black" stroke-opacity="0.2" stroke-width="1.5" stroke-linecap="round"/>
<path d="M8.93164 19.1031H16.4011" stroke="black" stroke-opacity="0.2" stroke-width="1.5" stroke-linecap="round"/>
<path d="M8.93164 19.1031H16.4011" stroke="black" stroke-opacity="0.2" stroke-width="1.5" stroke-linecap="round"/>
<path d="M8.93164 19.1031H16.4011" stroke="black" stroke-opacity="0.2" stroke-width="1.5" stroke-linecap="round"/>
<path d="M8.93164 19.1031H16.4011" stroke="black" stroke-opacity="0.2" stroke-width="1.5" stroke-linecap="round"/>
<path d="M8.93164 19.1031H16.4011" stroke="black" stroke-opacity="0.2" stroke-width="1.5" stroke-linecap="round"/>
<path d="M8.93164 19.1031H16.4011" stroke="black" stroke-opacity="0.2" stroke-width="1.5" stroke-linecap="round"/>
<path d="M8.93164 19.1031H16.4011" stroke="black" stroke-opacity="0.2" stroke-width="1.5" stroke-linecap="round"/>
<path d="M8.93164 19.1031H16.4011" stroke="black" stroke-opacity="0.2" stroke-width="1.5" stroke-linecap="round"/>
<path d="M8.93164 19.1031H16.4011" stroke="black" stroke-opacity="0.2" stroke-width="1.5" stroke-linecap="round"/>
<path d="M8.93164 19.1031H16.4011" stroke="black" stroke-opacity="0.2" stroke-width="1.5" stroke-linecap="round"/>
<path d="M8.93164 19.1031H16.4011" stroke="black" stroke-opacity="0.2" stroke-width="1.5" stroke-linecap="round"/>
<path d="M15.1631 7.44241C15.0455 8.72103 15.5821 11.2126 18.6709 10.9502" stroke="black" stroke-width="1.5" stroke-linecap="round"/>
<path d="M15.1631 7.44241C15.0455 8.72103 15.5821 11.2126 18.6709 10.9502" stroke="black" stroke-opacity="0.2" stroke-width="1.5" stroke-linecap="round"/>
<path d="M15.1631 7.44241C15.0455 8.72103 15.5821 11.2126 18.6709 10.9502" stroke="black" stroke-opacity="0.2" stroke-width="1.5" stroke-linecap="round"/>
<path d="M15.1631 7.44241C15.0455 8.72103 15.5821 11.2126 18.6709 10.9502" stroke="black" stroke-opacity="0.2" stroke-width="1.5" stroke-linecap="round"/>
<path d="M15.1631 7.44241C15.0455 8.72103 15.5821 11.2126 18.6709 10.9502" stroke="black" stroke-opacity="0.2" stroke-width="1.5" stroke-linecap="round"/>
<path d="M15.1631 7.44241C15.0455 8.72103 15.5821 11.2126 18.6709 10.9502" stroke="black" stroke-opacity="0.2" stroke-width="1.5" stroke-linecap="round"/>
<path d="M15.1631 7.44241C15.0455 8.72103 15.5821 11.2126 18.6709 10.9502" stroke="black" stroke-opacity="0.2" stroke-width="1.5" stroke-linecap="round"/>
<path d="M15.1631 7.44241C15.0455 8.72103 15.5821 11.2126 18.6709 10.9502" stroke="black" stroke-opacity="0.2" stroke-width="1.5" stroke-linecap="round"/>
<path d="M15.1631 7.44241C15.0455 8.72103 15.5821 11.2126 18.6709 10.9502" stroke="black" stroke-opacity="0.2" stroke-width="1.5" stroke-linecap="round"/>
<path d="M15.1631 7.44241C15.0455 8.72103 15.5821 11.2126 18.6709 10.9502" stroke="black" stroke-opacity="0.2" stroke-width="1.5" stroke-linecap="round"/>
<path d="M15.1631 7.44241C15.0455 8.72103 15.5821 11.2126 18.6709 10.9502" stroke="black" stroke-opacity="0.2" stroke-width="1.5" stroke-linecap="round"/>
<path d="M15.1631 7.44241C15.0455 8.72103 15.5821 11.2126 18.6709 10.9502" stroke="black" stroke-opacity="0.2" stroke-width="1.5" stroke-linecap="round"/>
<path d="M15.1631 7.44241C15.0455 8.72103 15.5821 11.2126 18.6709 10.9502" stroke="black" stroke-opacity="0.2" stroke-width="1.5" stroke-linecap="round"/>
<path d="M15.1631 7.44241C15.0455 8.72103 15.5821 11.2126 18.6709 10.9502" stroke="black" stroke-opacity="0.2" stroke-width="1.5" stroke-linecap="round"/>
<path d="M15.1631 7.44241C15.0455 8.72103 15.5821 11.2126 18.6709 10.9502" stroke="black" stroke-opacity="0.2" stroke-width="1.5" stroke-linecap="round"/>
<path d="M15.1631 7.44241C15.0455 8.72103 15.5821 11.2126 18.6709 10.9502" stroke="black" stroke-opacity="0.2" stroke-width="1.5" stroke-linecap="round"/>
<path d="M15.1631 7.44241C15.0455 8.72103 15.5821 11.2126 18.6709 10.9502" stroke="black" stroke-opacity="0.2" stroke-width="1.5" stroke-linecap="round"/>
</svg>
