<svg width="32" height="32" viewBox="0 0 32 32" fill="none" xmlns="http://www.w3.org/2000/svg">
<path d="M13.5179 4.6178C14.149 2.01632 17.8498 2.01632 18.4808 4.6178C18.5755 5.00861 18.7612 5.37154 19.0227 5.67706C19.2842 5.98257 19.614 6.22202 19.9855 6.37594C20.357 6.52986 20.7596 6.59388 21.1606 6.5628C21.5615 6.5317 21.9494 6.4064 22.2927 6.19706C24.5786 4.80446 27.1964 7.42077 25.8038 9.70817C25.5948 10.0514 25.4696 10.439 25.4387 10.8397C25.4076 11.2403 25.4716 11.6427 25.6254 12.0139C25.7791 12.3852 26.0183 12.715 26.3234 12.9764C26.6286 13.2378 26.9911 13.4236 27.3816 13.5186C29.9831 14.1496 29.9831 17.8504 27.3816 18.4815C26.9908 18.5762 26.6279 18.7619 26.3223 19.0234C26.0168 19.2848 25.7774 19.6147 25.6235 19.9862C25.4695 20.3576 25.4055 20.7603 25.4366 21.1612C25.4676 21.5622 25.593 21.95 25.8023 22.2934C27.195 24.5792 24.5786 27.1971 22.2912 25.8044C21.948 25.5955 21.5603 25.4703 21.1598 25.4394C20.7591 25.4083 20.3567 25.4723 19.9855 25.626C19.6142 25.7798 19.2844 26.019 19.023 26.324C18.7615 26.6292 18.5758 26.9918 18.4808 27.3823C17.8498 29.9838 14.149 29.9838 13.5179 27.3823C13.4232 26.9915 13.2375 26.6286 12.9761 26.323C12.7146 26.0175 12.3847 25.778 12.0132 25.6242C11.6417 25.4702 11.2391 25.4062 10.8382 25.4372C10.4373 25.4683 10.0494 25.5936 9.70602 25.803C7.4201 27.1956 4.80231 24.5792 6.19491 22.2919C6.40395 21.9487 6.52906 21.561 6.56007 21.1604C6.59109 20.7598 6.52713 20.3574 6.37338 19.9862C6.21965 19.6148 5.98047 19.2851 5.67531 19.0236C5.37014 18.7622 5.00759 18.5764 4.61713 18.4815C2.01565 17.8504 2.01565 14.1496 4.61713 13.5186C5.00794 13.4239 5.37087 13.2382 5.67639 12.9767C5.9819 12.7153 6.22135 12.3854 6.37527 12.0139C6.52919 11.6424 6.59321 11.2398 6.56213 10.8389C6.53103 10.4379 6.40573 10.05 6.19639 9.70669C4.80379 7.42077 7.4201 4.80298 9.7075 6.19558C11.189 7.09632 13.109 6.29928 13.5179 4.6178Z" stroke="#B5B5B5" stroke-width="2" stroke-linecap="round" stroke-linejoin="round"/>
<path d="M13.5179 4.6178C14.149 2.01632 17.8498 2.01632 18.4808 4.6178C18.5755 5.00861 18.7612 5.37154 19.0227 5.67706C19.2842 5.98257 19.614 6.22202 19.9855 6.37594C20.357 6.52986 20.7596 6.59388 21.1606 6.5628C21.5615 6.5317 21.9494 6.4064 22.2927 6.19706C24.5786 4.80446 27.1964 7.42077 25.8038 9.70817C25.5948 10.0514 25.4696 10.439 25.4387 10.8397C25.4076 11.2403 25.4716 11.6427 25.6254 12.0139C25.7791 12.3852 26.0183 12.715 26.3234 12.9764C26.6286 13.2378 26.9911 13.4236 27.3816 13.5186C29.9831 14.1496 29.9831 17.8504 27.3816 18.4815C26.9908 18.5762 26.6279 18.7619 26.3223 19.0234C26.0168 19.2848 25.7774 19.6147 25.6235 19.9862C25.4695 20.3576 25.4055 20.7603 25.4366 21.1612C25.4676 21.5622 25.593 21.95 25.8023 22.2934C27.195 24.5792 24.5786 27.1971 22.2912 25.8044C21.948 25.5955 21.5603 25.4703 21.1598 25.4394C20.7591 25.4083 20.3567 25.4723 19.9855 25.626C19.6142 25.7798 19.2844 26.019 19.023 26.324C18.7615 26.6292 18.5758 26.9918 18.4808 27.3823C17.8498 29.9838 14.149 29.9838 13.5179 27.3823C13.4232 26.9915 13.2375 26.6286 12.9761 26.323C12.7146 26.0175 12.3847 25.778 12.0132 25.6242C11.6417 25.4702 11.2391 25.4062 10.8382 25.4372C10.4373 25.4683 10.0494 25.5936 9.70602 25.803C7.4201 27.1956 4.80231 24.5792 6.19491 22.2919C6.40395 21.9487 6.52906 21.561 6.56007 21.1604C6.59109 20.7598 6.52713 20.3574 6.37338 19.9862C6.21965 19.6148 5.98047 19.2851 5.67531 19.0236C5.37014 18.7622 5.00759 18.5764 4.61713 18.4815C2.01565 17.8504 2.01565 14.1496 4.61713 13.5186C5.00794 13.4239 5.37087 13.2382 5.67639 12.9767C5.9819 12.7153 6.22135 12.3854 6.37527 12.0139C6.52919 11.6424 6.59321 11.2398 6.56213 10.8389C6.53103 10.4379 6.40573 10.05 6.19639 9.70669C4.80379 7.42077 7.4201 4.80298 9.7075 6.19558C11.189 7.09632 13.109 6.29928 13.5179 4.6178Z" stroke="black" stroke-opacity="0.2" stroke-width="2" stroke-linecap="round" stroke-linejoin="round"/>
<path d="M13.5179 4.6178C14.149 2.01632 17.8498 2.01632 18.4808 4.6178C18.5755 5.00861 18.7612 5.37154 19.0227 5.67706C19.2842 5.98257 19.614 6.22202 19.9855 6.37594C20.357 6.52986 20.7596 6.59388 21.1606 6.5628C21.5615 6.5317 21.9494 6.4064 22.2927 6.19706C24.5786 4.80446 27.1964 7.42077 25.8038 9.70817C25.5948 10.0514 25.4696 10.439 25.4387 10.8397C25.4076 11.2403 25.4716 11.6427 25.6254 12.0139C25.7791 12.3852 26.0183 12.715 26.3234 12.9764C26.6286 13.2378 26.9911 13.4236 27.3816 13.5186C29.9831 14.1496 29.9831 17.8504 27.3816 18.4815C26.9908 18.5762 26.6279 18.7619 26.3223 19.0234C26.0168 19.2848 25.7774 19.6147 25.6235 19.9862C25.4695 20.3576 25.4055 20.7603 25.4366 21.1612C25.4676 21.5622 25.593 21.95 25.8023 22.2934C27.195 24.5792 24.5786 27.1971 22.2912 25.8044C21.948 25.5955 21.5603 25.4703 21.1598 25.4394C20.7591 25.4083 20.3567 25.4723 19.9855 25.626C19.6142 25.7798 19.2844 26.019 19.023 26.324C18.7615 26.6292 18.5758 26.9918 18.4808 27.3823C17.8498 29.9838 14.149 29.9838 13.5179 27.3823C13.4232 26.9915 13.2375 26.6286 12.9761 26.323C12.7146 26.0175 12.3847 25.778 12.0132 25.6242C11.6417 25.4702 11.2391 25.4062 10.8382 25.4372C10.4373 25.4683 10.0494 25.5936 9.70602 25.803C7.4201 27.1956 4.80231 24.5792 6.19491 22.2919C6.40395 21.9487 6.52906 21.561 6.56007 21.1604C6.59109 20.7598 6.52713 20.3574 6.37338 19.9862C6.21965 19.6148 5.98047 19.2851 5.67531 19.0236C5.37014 18.7622 5.00759 18.5764 4.61713 18.4815C2.01565 17.8504 2.01565 14.1496 4.61713 13.5186C5.00794 13.4239 5.37087 13.2382 5.67639 12.9767C5.9819 12.7153 6.22135 12.3854 6.37527 12.0139C6.52919 11.6424 6.59321 11.2398 6.56213 10.8389C6.53103 10.4379 6.40573 10.05 6.19639 9.70669C4.80379 7.42077 7.4201 4.80298 9.7075 6.19558C11.189 7.09632 13.109 6.29928 13.5179 4.6178Z" stroke="black" stroke-opacity="0.2" stroke-width="2" stroke-linecap="round" stroke-linejoin="round"/>
<path d="M13.5179 4.6178C14.149 2.01632 17.8498 2.01632 18.4808 4.6178C18.5755 5.00861 18.7612 5.37154 19.0227 5.67706C19.2842 5.98257 19.614 6.22202 19.9855 6.37594C20.357 6.52986 20.7596 6.59388 21.1606 6.5628C21.5615 6.5317 21.9494 6.4064 22.2927 6.19706C24.5786 4.80446 27.1964 7.42077 25.8038 9.70817C25.5948 10.0514 25.4696 10.439 25.4387 10.8397C25.4076 11.2403 25.4716 11.6427 25.6254 12.0139C25.7791 12.3852 26.0183 12.715 26.3234 12.9764C26.6286 13.2378 26.9911 13.4236 27.3816 13.5186C29.9831 14.1496 29.9831 17.8504 27.3816 18.4815C26.9908 18.5762 26.6279 18.7619 26.3223 19.0234C26.0168 19.2848 25.7774 19.6147 25.6235 19.9862C25.4695 20.3576 25.4055 20.7603 25.4366 21.1612C25.4676 21.5622 25.593 21.95 25.8023 22.2934C27.195 24.5792 24.5786 27.1971 22.2912 25.8044C21.948 25.5955 21.5603 25.4703 21.1598 25.4394C20.7591 25.4083 20.3567 25.4723 19.9855 25.626C19.6142 25.7798 19.2844 26.019 19.023 26.324C18.7615 26.6292 18.5758 26.9918 18.4808 27.3823C17.8498 29.9838 14.149 29.9838 13.5179 27.3823C13.4232 26.9915 13.2375 26.6286 12.9761 26.323C12.7146 26.0175 12.3847 25.778 12.0132 25.6242C11.6417 25.4702 11.2391 25.4062 10.8382 25.4372C10.4373 25.4683 10.0494 25.5936 9.70602 25.803C7.4201 27.1956 4.80231 24.5792 6.19491 22.2919C6.40395 21.9487 6.52906 21.561 6.56007 21.1604C6.59109 20.7598 6.52713 20.3574 6.37338 19.9862C6.21965 19.6148 5.98047 19.2851 5.67531 19.0236C5.37014 18.7622 5.00759 18.5764 4.61713 18.4815C2.01565 17.8504 2.01565 14.1496 4.61713 13.5186C5.00794 13.4239 5.37087 13.2382 5.67639 12.9767C5.9819 12.7153 6.22135 12.3854 6.37527 12.0139C6.52919 11.6424 6.59321 11.2398 6.56213 10.8389C6.53103 10.4379 6.40573 10.05 6.19639 9.70669C4.80379 7.42077 7.4201 4.80298 9.7075 6.19558C11.189 7.09632 13.109 6.29928 13.5179 4.6178Z" stroke="black" stroke-opacity="0.2" stroke-width="2" stroke-linecap="round" stroke-linejoin="round"/>
<path d="M16 20C18.2092 20 20 18.2092 20 16C20 13.7908 18.2092 12 16 12C13.7908 12 12 13.7908 12 16C12 18.2092 13.7908 20 16 20Z" stroke="#B5B5B5" stroke-width="2" stroke-linecap="round" stroke-linejoin="round"/>
<path d="M16 20C18.2092 20 20 18.2092 20 16C20 13.7908 18.2092 12 16 12C13.7908 12 12 13.7908 12 16C12 18.2092 13.7908 20 16 20Z" stroke="black" stroke-opacity="0.2" stroke-width="2" stroke-linecap="round" stroke-linejoin="round"/>
<path d="M16 20C18.2092 20 20 18.2092 20 16C20 13.7908 18.2092 12 16 12C13.7908 12 12 13.7908 12 16C12 18.2092 13.7908 20 16 20Z" stroke="black" stroke-opacity="0.2" stroke-width="2" stroke-linecap="round" stroke-linejoin="round"/>
<path d="M16 20C18.2092 20 20 18.2092 20 16C20 13.7908 18.2092 12 16 12C13.7908 12 12 13.7908 12 16C12 18.2092 13.7908 20 16 20Z" stroke="black" stroke-opacity="0.2" stroke-width="2" stroke-linecap="round" stroke-linejoin="round"/>
</svg>
