<svg width="32" height="32" viewBox="0 0 32 32" fill="none" xmlns="http://www.w3.org/2000/svg">
<rect width="32" height="32" fill="#F5F5F5"/>
<g id="Home">
<rect width="1920" height="2360" transform="translate(-1808 -212)" fill="white"/>
<g id="Orders">
<g id="2">
<g id="Frame 123">
<g id="Beautify-16">
<g id="Vector">
<path d="M17.6977 11.4799C18.4925 11.4183 19.1584 10.7528 19.1584 9.93324V7.71503C19.1584 7.08311 19.8982 6.76302 20.3377 7.20484L27.5824 14.4896C28.1392 15.0495 28.1392 15.9706 27.5824 16.5303L20.3377 23.8151C19.8982 24.257 19.1584 23.9368 19.1584 23.3049V20.3373C19.1584 19.8623 18.9302 19.4192 18.5103 19.2213C16.5887 18.3166 10.7007 16.6217 5 26C5 13.6898 14.0809 11.7602 17.6977 11.4799Z" stroke="#B5B5B5" stroke-width="1.5" stroke-linecap="round" stroke-linejoin="round"/>
<path d="M17.6977 11.4799C18.4925 11.4183 19.1584 10.7528 19.1584 9.93324V7.71503C19.1584 7.08311 19.8982 6.76302 20.3377 7.20484L27.5824 14.4896C28.1392 15.0495 28.1392 15.9706 27.5824 16.5303L20.3377 23.8151C19.8982 24.257 19.1584 23.9368 19.1584 23.3049V20.3373C19.1584 19.8623 18.9302 19.4192 18.5103 19.2213C16.5887 18.3166 10.7007 16.6217 5 26C5 13.6898 14.0809 11.7602 17.6977 11.4799Z" stroke="black" stroke-opacity="0.2" stroke-width="1.5" stroke-linecap="round" stroke-linejoin="round"/>
<path d="M17.6977 11.4799C18.4925 11.4183 19.1584 10.7528 19.1584 9.93324V7.71503C19.1584 7.08311 19.8982 6.76302 20.3377 7.20484L27.5824 14.4896C28.1392 15.0495 28.1392 15.9706 27.5824 16.5303L20.3377 23.8151C19.8982 24.257 19.1584 23.9368 19.1584 23.3049V20.3373C19.1584 19.8623 18.9302 19.4192 18.5103 19.2213C16.5887 18.3166 10.7007 16.6217 5 26C5 13.6898 14.0809 11.7602 17.6977 11.4799Z" stroke="black" stroke-opacity="0.2" stroke-width="1.5" stroke-linecap="round" stroke-linejoin="round"/>
<path d="M17.6977 11.4799C18.4925 11.4183 19.1584 10.7528 19.1584 9.93324V7.71503C19.1584 7.08311 19.8982 6.76302 20.3377 7.20484L27.5824 14.4896C28.1392 15.0495 28.1392 15.9706 27.5824 16.5303L20.3377 23.8151C19.8982 24.257 19.1584 23.9368 19.1584 23.3049V20.3373C19.1584 19.8623 18.9302 19.4192 18.5103 19.2213C16.5887 18.3166 10.7007 16.6217 5 26C5 13.6898 14.0809 11.7602 17.6977 11.4799Z" stroke="black" stroke-opacity="0.2" stroke-width="1.5" stroke-linecap="round" stroke-linejoin="round"/>
</g>
</g>
</g>
</g>
</g>
</g>
</svg>
