<svg width="33" height="21" viewBox="0 0 33 21" fill="none" xmlns="http://www.w3.org/2000/svg">
<g clip-path="url(#clip0_18_125)">
<path d="M0 0.000457764H33V21H0V0.000457764Z" fill="#D80027"/>
<path d="M0 14.6087H33V20.9998H0V14.6087Z" fill="#6DA544"/>
<path d="M0 0.000457764H33V6.43059H0V0.000457764Z" fill="#338AF3"/>
<path d="M0 7.72388H33V13.2398H0V7.72388Z" fill="white"/>
<path d="M0 0.000457764H33V6.43059H0V0.000457764Z" fill="#338AF3"/>
<path d="M3.86373 3.21495C3.86373 2.23155 4.5878 1.40991 5.55472 1.20842C5.40324 1.17674 5.24863 1.16071 5.09356 1.16061C3.90492 1.16061 2.94141 2.08033 2.94141 3.21495C2.94141 4.34956 3.90492 5.26928 5.09356 5.26928C5.25199 5.26928 5.40616 5.25248 5.55472 5.22147C4.5878 5.01998 3.86373 4.19834 3.86373 3.21495ZM6.82664 4.14869L6.97237 4.57671H7.44384L7.06241 4.84132L7.20814 5.26928L6.82664 5.00472L6.44521 5.26928L6.59094 4.84132L6.2095 4.57671H6.68098L6.82664 4.14869ZM8.33149 4.14869L8.47716 4.57671H8.94863L8.5672 4.84132L8.71293 5.26928L8.33149 5.00472L7.95006 5.26928L8.09572 4.84132L7.71435 4.57671H8.18576L8.33149 4.14869ZM9.83628 4.14869L9.98194 4.57671H10.4534L10.072 4.84132L10.2177 5.26928L9.83628 5.00472L9.45484 5.26928L9.60051 4.84132L9.21908 4.57671H9.69055L9.83628 4.14869ZM11.3411 4.14869L11.4869 4.57671H11.9583L11.5768 4.84132L11.7226 5.26928L11.3411 5.00472L10.9596 5.26928L11.1054 4.84132L10.7239 4.57671H11.1953L11.3411 4.14869ZM12.8459 4.14869L12.9916 4.57671H13.4631L13.0816 4.84132L13.2274 5.26928L12.8459 5.00472L12.4645 5.26928L12.6101 4.84132L12.2288 4.57671H12.7002L12.8459 4.14869ZM8.33149 2.65465L8.47716 3.08261H8.94863L8.5672 3.34716L8.71293 3.77518L8.33149 3.51069L7.95006 3.77518L8.09572 3.34716L7.71435 3.08261H8.18576L8.33149 2.65465ZM9.83628 2.65465L9.98194 3.08261H10.4534L10.072 3.34716L10.2177 3.77518L9.83628 3.51069L9.45484 3.77518L9.60051 3.34716L9.21908 3.08261H9.69055L9.83628 2.65465ZM11.3411 2.65465L11.4869 3.08261H11.9583L11.5768 3.34716L11.7226 3.77518L11.3411 3.51069L10.9596 3.77518L11.1054 3.34716L10.7239 3.08261H11.1953L11.3411 2.65465ZM12.8459 2.65465L12.9916 3.08261H13.4631L13.0816 3.34716L13.2274 3.77518L12.8459 3.51069L12.4645 3.77518L12.6101 3.34716L12.2288 3.08261H12.7002L12.8459 2.65465ZM9.83628 1.16061L9.98194 1.58857H10.4534L10.072 1.85312L10.2177 2.28114L9.83628 2.01659L9.45484 2.28114L9.60051 1.85312L9.21908 1.58857H9.69055L9.83628 1.16061ZM11.3411 1.16061L11.4869 1.58857H11.9583L11.5768 1.85312L11.7226 2.28114L11.3411 2.01659L10.9596 2.28114L11.1054 1.85312L10.7239 1.58857H11.1953L11.3411 1.16061ZM12.8459 1.16061L12.9916 1.58857H13.4631L13.0816 1.85312L13.2274 2.28114L12.8459 2.01659L12.4645 2.28114L12.6101 1.85312L12.2288 1.58857H12.7002L12.8459 1.16061Z" fill="white"/>
</g>
<defs>
<clipPath id="clip0_18_125">
<rect width="33" height="21" rx="3" fill="white"/>
</clipPath>
</defs>
</svg>
